<svg width="36" height="39" viewBox="0 0 36 39" fill="none" xmlns="http://www.w3.org/2000/svg">
<path d="M5.58427 2.52577L1 34.1856L20.4831 38M5.58427 2.52577L23.1573 5.19588M5.58427 2.52577L10.5506 2.14433L9.78652 1L30.7978 4.43299M20.4831 38L23.1573 5.19588M20.4831 38L35 35.3299L30.7978 4.43299M23.1573 5.19588L24.6854 4.43299H30.7978M9.02247 8.24742C9.02247 8.24742 7.49438 7.48454 6.73034 9.01031C5.96629 10.5361 6.59577 23.1237 9.78652 23.1237C13.6067 23.1237 15.3818 11.8826 16.2809 10.5361C17.0449 9.39175 17.9363 9.39175 18.573 9.7732" stroke="black" fill="white" stroke-width="1.1" stroke-linecap="round" stroke-linejoin="round"/>
</svg>
