<svg width="143" height="281" viewBox="0 0 143 281" fill="none" xmlns="http://www.w3.org/2000/svg">
<path d="M12.5063 254.056C12.3912 247.607 19.4486 243.025 23.6139 243.556C48.6061 246.742 24.9449 285.872 12.2025 276.052C1.22076 267.588 12.6215 260.505 12.5063 254.056Z" fill="#AAD682"/>
<ellipse cx="45.893" cy="77.6878" rx="4.08883" ry="4.1117" transform="rotate(-90 45.893 77.6878)" fill="#E2EEF4"/>
<ellipse cx="37.6703" cy="64.3991" rx="4.08883" ry="4.1117" transform="rotate(-90 37.6703 64.3991)" fill="#E2EEF4"/>
<ellipse cx="17.1117" cy="64.3991" rx="4.08883" ry="4.1117" transform="rotate(-90 17.1117 64.3991)" fill="#E2EEF4"/>
<ellipse cx="33.559" cy="43.955" rx="4.08883" ry="4.1117" transform="rotate(-90 33.559 43.955)" fill="#E2EEF4"/>
<ellipse cx="54.1176" cy="48.0438" rx="4.08883" ry="4.1117" transform="rotate(-90 54.1176 48.0438)" fill="#E2EEF4"/>
<ellipse cx="72.6195" cy="64.3991" rx="4.08883" ry="4.1117" transform="rotate(-90 72.6195 64.3991)" fill="#E2EEF4"/>
<ellipse cx="72.6195" cy="93.021" rx="4.08883" ry="4.1117" transform="rotate(-90 72.6195 93.021)" fill="#E2EEF4"/>
<ellipse cx="89.0668" cy="75.6435" rx="4.08883" ry="4.1117" transform="rotate(-90 89.0668 75.6435)" fill="#E2EEF4"/>
<ellipse cx="17.1117" cy="32.7107" rx="4.08883" ry="4.1117" transform="rotate(-90 17.1117 32.7107)" fill="#E2EEF4"/>
<ellipse cx="29.4457" cy="109.911" rx="4.08883" ry="4.1117" transform="rotate(-90 29.4457 109.911)" fill="#E2EEF4"/>
<ellipse cx="91.1215" cy="26.6493" rx="4.08883" ry="4.1117" transform="rotate(-90 91.1215 26.6493)" fill="#E2EEF4"/>
<ellipse cx="21.223" cy="13.2887" rx="4.08883" ry="4.1117" transform="rotate(-90 21.223 13.2887)" fill="#E2EEF4"/>
<ellipse cx="41.7816" cy="24.533" rx="4.08883" ry="4.1117" transform="rotate(-90 41.7816 24.533)" fill="#E2EEF4"/>
<ellipse cx="58.2289" cy="20.4442" rx="4.08883" ry="4.1117" transform="rotate(-90 58.2289 20.4442)" fill="#E2EEF4"/>
<ellipse cx="72.6195" cy="12.2666" rx="4.08883" ry="4.1117" transform="rotate(-90 72.6195 12.2666)" fill="#E2EEF4"/>
<ellipse cx="80.8422" cy="43.955" rx="4.08883" ry="4.1117" transform="rotate(-90 80.8422 43.955)" fill="#E2EEF4"/>
<ellipse cx="105.514" cy="60.3103" rx="4.08883" ry="4.1117" transform="rotate(-90 105.514 60.3103)" fill="#E2EEF4"/>
<ellipse cx="126.071" cy="67.4658" rx="4.08883" ry="4.1117" transform="rotate(-90 126.071 67.4658)" fill="#E2EEF4"/>
<ellipse cx="111.682" cy="24.533" rx="4.08883" ry="4.1117" transform="rotate(-90 111.682 24.533)" fill="#E2EEF4"/>
<ellipse cx="119.903" cy="35.7773" rx="4.08883" ry="4.1117" transform="rotate(-90 119.903 35.7773)" fill="#E2EEF4"/>
<ellipse cx="93.1781" cy="4.08884" rx="4.08883" ry="4.1117" transform="rotate(-90 93.1781 4.08884)" fill="#E2EEF4"/>
<ellipse cx="126.071" cy="85.8655" rx="4.08883" ry="4.1117" transform="rotate(-90 126.071 85.8655)" fill="#E2EEF4"/>
<ellipse cx="99.3461" cy="97.1098" rx="4.08883" ry="4.1117" transform="rotate(-90 99.3461 97.1098)" fill="#E2EEF4"/>
<ellipse cx="138.407" cy="52.1326" rx="4.08883" ry="4.1117" transform="rotate(-90 138.407 52.1326)" fill="#E2EEF4"/>
</svg>