<svg width="225" height="227" viewBox="0 0 225 227" fill="none" xmlns="http://www.w3.org/2000/svg">
<ellipse cx="64.1982" cy="100.656" rx="5.35773" ry="5.3877" transform="rotate(-42.6319 64.1982 100.656)" fill="#E2EEF4"/>
<ellipse cx="69.7109" cy="80.9352" rx="5.35773" ry="5.3877" transform="rotate(-42.6319 69.7109 80.9352)" fill="#E2EEF4"/>
<ellipse cx="51.4658" cy="61.1159" rx="5.35773" ry="5.3877" transform="rotate(-42.6319 51.4658 61.1159)" fill="#E2EEF4"/>
<ellipse cx="85.7715" cy="58.8278" rx="5.35773" ry="5.3877" transform="rotate(-42.6319 85.7715 58.8278)" fill="#E2EEF4"/>
<ellipse cx="100.074" cy="82.2756" rx="5.35773" ry="5.3877" transform="rotate(-42.6319 100.074 82.2756)" fill="#E2EEF4"/>
<ellipse cx="100.729" cy="114.628" rx="5.35773" ry="5.3877" transform="rotate(-42.6319 100.729 114.628)" fill="#E2EEF4"/>
<ellipse cx="73.1357" cy="140.029" rx="5.35773" ry="5.3877" transform="rotate(-42.6319 73.1357 140.029)" fill="#E2EEF4"/>
<ellipse cx="104.483" cy="140.462" rx="5.35773" ry="5.3877" transform="rotate(-42.6319 104.483 140.462)" fill="#E2EEF4"/>
<ellipse cx="82.0146" cy="32.9934" rx="5.35773" ry="5.3877" transform="rotate(-42.6319 82.0146 32.9934)" fill="#E2EEF4"/>
<ellipse cx="18.5381" cy="113.398" rx="5.35773" ry="5.3877" transform="rotate(-42.6319 18.5381 113.398)" fill="#E2EEF4"/>
<ellipse cx="153.541" cy="98.9631" rx="5.35773" ry="5.3877" transform="rotate(-42.6319 153.541 98.9631)" fill="#E2EEF4"/>
<ellipse cx="104.388" cy="19.7207" rx="5.35773" ry="5.3877" transform="rotate(-42.6319 104.388 19.7207)" fill="#E2EEF4"/>
<ellipse cx="111.792" cy="49.5189" rx="5.35773" ry="5.3877" transform="rotate(-42.6319 111.792 49.5189)" fill="#E2EEF4"/>
<ellipse cx="130.33" cy="61.7456" rx="5.35773" ry="5.3877" transform="rotate(-42.6319 130.33 61.7456)" fill="#E2EEF4"/>
<ellipse cx="150.985" cy="68.3617" rx="5.35773" ry="5.3877" transform="rotate(-42.6319 150.985 68.3617)" fill="#E2EEF4"/>
<ellipse cx="127.734" cy="104.412" rx="5.35773" ry="5.3877" transform="rotate(-42.6319 127.734 104.412)" fill="#E2EEF4"/>
<ellipse cx="133.861" cy="142.71" rx="5.35773" ry="5.3877" transform="rotate(-42.6319 133.861 142.71)" fill="#E2EEF4"/>
<ellipse cx="145.208" cy="168.879" rx="5.35773" ry="5.3877" transform="rotate(-42.6319 145.208 168.879)" fill="#E2EEF4"/>
<ellipse cx="173.825" cy="116.904" rx="5.35773" ry="5.3877" transform="rotate(-42.6319 173.825 116.904)" fill="#E2EEF4"/>
<ellipse cx="170.284" cy="134.811" rx="5.35773" ry="5.3877" transform="rotate(-42.6319 170.284 134.811)" fill="#E2EEF4"/>
<ellipse cx="177.114" cy="80.9234" rx="5.35773" ry="5.3877" transform="rotate(-42.6319 177.114 80.9234)" fill="#E2EEF4"/>
<ellipse cx="127.471" cy="185.208" rx="5.35773" ry="5.3877" transform="rotate(-42.6319 127.471 185.208)" fill="#E2EEF4"/>
<ellipse cx="92.9121" cy="169.422" rx="5.35773" ry="5.3877" transform="rotate(-42.6319 92.9121 169.422)" fill="#E2EEF4"/>
<ellipse cx="170.937" cy="167.163" rx="5.35773" ry="5.3877" transform="rotate(-42.6319 170.937 167.163)" fill="#E2EEF4"/>
</svg>
