<svg width="147" height="175" viewBox="0 0 147 175" fill="none" xmlns="http://www.w3.org/2000/svg">
<path d="M124 119.5C124 150.152 99.1518 175 68.5 175C37.8482 175 13 150.152 13 119.5C13 88.8482 37.8482 64 68.5 64C99.1518 64 124 88.8482 124 119.5Z" fill="#97C318"/>
<path d="M13.7137 15.925C14.4617 15.925 15.0681 15.3169 15.0681 14.5667C15.0681 13.8166 14.4617 13.2085 13.7137 13.2085C12.9657 13.2085 12.3594 13.8166 12.3594 14.5667C12.3594 15.3169 12.9657 15.925 13.7137 15.925Z" fill="#FFA800"/>
<path d="M24.5478 26.7907C25.2958 26.7907 25.9022 26.1826 25.9022 25.4325C25.9022 24.6823 25.2958 24.0742 24.5478 24.0742C23.7997 24.0742 23.1934 24.6823 23.1934 25.4325C23.1934 26.1826 23.7997 26.7907 24.5478 26.7907Z" fill="#FFA800"/>
<path d="M37.551 20.4075C37.551 20.1358 37.551 19.8642 37.551 19.4567L38.2282 14.9745C38.3637 14.1596 38.0928 13.2088 37.4156 12.6655L34.165 9.5416C34.0296 9.26995 33.8941 9.13413 33.7587 8.86248L31.7271 4.78778C31.3207 3.97284 30.6435 3.42954 29.6954 3.29372L25.2259 2.6146C24.955 2.6146 24.6841 2.47878 24.4132 2.34295L20.35 0.305603C19.5374 -0.101868 18.5893 -0.101868 17.9121 0.305603L13.8488 2.34295C13.578 2.47878 13.3071 2.6146 13.0362 2.6146L8.56664 3.29372C7.754 3.42954 6.94135 3.97284 6.53503 4.78778L4.50341 8.86248C4.36797 9.13413 4.23253 9.26995 3.96165 9.5416L0.846506 12.6655C0.169301 13.3447 -0.101581 14.1596 0.0338602 14.9745L0.711065 19.4567C0.711065 19.7284 0.711065 20 0.711065 20.4075L0.0338602 24.8896C-0.101581 25.7046 0.169301 26.6553 0.846506 27.1986L4.09709 30.3226C4.23253 30.73 4.36797 30.8659 4.50341 31.1375L6.53503 35.2122C6.94135 36.0272 7.61856 36.5705 8.56664 36.7063L13.0362 37.3854C13.3071 37.3854 13.578 37.5212 13.8488 37.657L17.9121 39.6944C18.7247 40.1019 19.6728 40.1019 20.35 39.6944L24.4132 37.657C24.6841 37.5212 24.955 37.3854 25.2259 37.3854L29.6954 36.7063C30.5081 36.5705 31.3207 36.0272 31.7271 35.2122L33.7587 31.1375C33.8941 30.8659 34.0296 30.5942 34.3004 30.4584L37.551 27.3345C38.2282 26.6553 38.4991 25.8404 38.3637 25.0255L37.551 20.4075ZM13.7134 10.4924C16.0159 10.4924 17.7766 12.2581 17.7766 14.5671C17.7766 16.8761 16.0159 18.6418 13.7134 18.6418C11.4109 18.6418 9.65017 16.8761 9.65017 14.5671C9.65017 12.2581 11.4109 10.4924 13.7134 10.4924ZM11.9527 29.1002L10.0565 27.1986L26.3094 10.8998L28.2056 12.8014L11.9527 29.1002ZM24.5487 29.5076C22.2462 29.5076 20.4855 27.7419 20.4855 25.4329C20.4855 23.1239 22.2462 21.3582 24.5487 21.3582C26.8512 21.3582 28.6119 23.1239 28.6119 25.4329C28.6119 27.7419 26.8512 29.5076 24.5487 29.5076Z" fill="#FFA800"/>
<circle cx="141" cy="57" r="6" fill="#97C318"/>
<path d="M68.519 90.964C64.925 90.964 62.001 88.04 62.001 84.446C62.001 80.852 64.925 77.927 68.519 77.927C72.114 77.927 75.038 80.851 75.038 84.446C75.038 88.041 72.113 90.964 68.519 90.964Z" fill="white"/>
<path d="M69.5195 71H67.5195V76.644H69.5195V71Z" fill="white"/>
<path d="M69.5195 92.3921H67.5195V98.0361H69.5195V92.3921Z" fill="white"/>
<path d="M82.0366 83.5181H76.3926V85.5181H82.0366V83.5181Z" fill="white"/>
<path d="M60.645 83.5181H55V85.5181H60.645V83.5181Z" fill="white"/>
<path d="M78.7864 93.3732L74.7949 89.3823L73.3807 90.7967L77.3722 94.7876L78.7864 93.3732Z" fill="white"/>
<path d="M63.6582 78.2427L59.666 74.2517L58.252 75.6661L62.2442 79.6571L63.6582 78.2427Z" fill="white"/>
<path d="M63.6574 90.7921L62.2432 89.3779L58.2523 93.3688L59.6665 94.783L63.6574 90.7921Z" fill="white"/>
<path d="M78.7843 75.6657L77.3701 74.2515L73.3785 78.243L74.7927 79.6572L78.7843 75.6657Z" fill="white"/>
<path d="M108.01 128.699C103.11 156.113 80.6697 160.291 80.6697 160.291C51.5823 167.798 40.0865 142.933 40.0865 142.933C56.038 166.39 79.2619 159.119 79.2619 159.119C75.0398 159.59 61.4342 144.107 61.4342 144.107C46.186 128.859 31.1738 134.958 31.1738 134.958C43.3717 172.49 79.2607 162.871 79.2607 162.871C104.956 154.521 107.78 132.521 108.077 128.742C108.055 128.728 108.032 128.714 108.01 128.699Z" fill="white"/>
<path d="M59.0875 137.772C58.1493 137.535 72.8105 131.086 72.8105 131.086V130.264C71.3895 129.804 69.989 129.4 68.6052 129.041V127.1C78.2295 129.139 78.565 117.126 78.565 117.126C72.5936 117.491 69.8272 119.377 68.6052 121.405V118.013C76.4623 113.129 67.4562 104.552 67.4562 104.552C60.5168 112.083 64.6598 116.292 66.832 117.787V120.377C65.3032 118.688 62.411 117.334 56.9584 117.475C56.9584 117.475 58.2488 128.641 66.832 126.797V128.607C56.9021 126.286 48.1404 126.394 41.6527 127.158V125.548C51.277 127.587 51.6125 115.574 51.6125 115.574C45.6412 115.941 42.8748 117.825 41.6527 119.854V116.462C49.5098 111.576 40.5037 103 40.5037 103C33.5643 110.531 37.7086 114.74 39.8807 116.237V118.826C38.3519 117.136 35.4585 115.783 30.0072 115.924C30.0072 115.924 31.2975 127.089 39.8807 125.245V127.389C33.6949 128.28 30 129.677 30 129.677L30.351 132.023C48.2962 129.443 59.0875 137.772 59.0875 137.772Z" fill="#D6E8BA"/>
<path d="M84.3005 117.477C84.3005 117.477 85.5908 128.642 94.174 126.798V128.218C77.8583 130.227 60.0605 139.28 60.0605 139.28C79.8639 161.522 82.1846 158.89 82.1846 158.89C102.708 153.881 107.556 128.642 107.556 128.642C104.039 127.765 100.063 127.653 95.9472 128.028V127.101C105.572 129.14 105.907 117.127 105.907 117.127C99.9369 117.492 97.1693 119.378 95.9472 121.406V118.015C103.804 113.13 94.7982 104.553 94.7982 104.553C87.8588 112.084 92.0019 116.293 94.174 117.788V120.378C92.6465 118.688 89.753 117.334 84.3005 117.477Z" fill="white"/>
</svg>
