<svg width="160" height="161" viewBox="0 0 160 161" fill="none" xmlns="http://www.w3.org/2000/svg">
<circle cx="49.5" cy="111.5" r="49.5" fill="#97C318"/>
<path d="M29.794 92.6051C29.5149 93.494 29.4554 94.4374 29.6208 95.3543C29.7862 96.2712 30.1715 97.1344 30.7436 97.8697C32.9746 100.887 38.0814 102.81 45.018 103.335V139.999H52.982V103.36C62.0229 102.769 68.4613 100.139 70.1674 96.2024C71.0171 94.2425 70.5703 92.1784 68.908 90.3911C68.1942 89.5598 67.2917 88.9116 66.276 88.5007C65.2603 88.0897 64.1609 87.9281 63.0699 88.0293C57.4766 88.5115 51.6661 95.4661 49.1157 98.9049C47.8327 96.8651 45.5735 93.7161 42.7241 91.579C39.7811 89.3712 35.7986 88.4623 33.0412 89.3718C32.2752 89.6009 31.5778 90.0161 31.0112 90.5803C30.4446 91.1445 30.0265 91.8401 29.794 92.6051ZM63.3187 90.9163C63.4468 90.905 63.573 90.8993 63.6973 90.8993C64.289 90.9066 64.8721 91.0415 65.4068 91.2949C65.9415 91.5483 66.4152 91.9141 66.7955 92.3674C68.0808 93.7495 67.6571 94.7264 67.5183 95.0473C66.4513 97.5086 61.0217 100.143 51.4991 100.538C54.1967 96.9183 59.2246 91.2678 63.3187 90.9163V90.9163ZM32.5588 93.4462C32.6569 93.1258 32.8356 92.836 33.0779 92.6046C33.3201 92.3732 33.6178 92.2079 33.9423 92.1246C34.415 91.9784 34.9078 91.9077 35.4026 91.9152C37.4251 91.9915 39.376 92.6838 40.9941 93.8995C43.5106 95.787 45.5735 98.7028 46.7234 100.541C38.8483 100.201 34.5184 98.1102 33.0638 96.1435C32.7621 95.7713 32.5579 95.3297 32.4697 94.8588C32.3816 94.3878 32.4122 93.9023 32.5588 93.4462Z" fill="#D6E8BA"/>
<path d="M27.0674 115.663V139.01C27.0672 139.14 27.0925 139.269 27.142 139.389C27.1915 139.508 27.2641 139.618 27.3557 139.709C27.4473 139.801 27.5561 139.874 27.676 139.924C27.7958 139.974 27.9242 140 28.054 140H42.7077V114.674H28.054C27.9242 114.674 27.7958 114.7 27.676 114.749C27.5562 114.799 27.4473 114.872 27.3557 114.964C27.2641 115.056 27.1915 115.165 27.142 115.285C27.0925 115.405 27.0672 115.534 27.0674 115.663Z" fill="white"/>
<path d="M70.9325 139.01V115.663C70.9327 115.534 70.9073 115.405 70.8579 115.285C70.8084 115.165 70.7358 115.056 70.6442 114.964C70.5526 114.872 70.4437 114.799 70.3239 114.749C70.2041 114.7 70.0757 114.674 69.9459 114.674H55.292V140H69.9459C70.0757 140 70.2041 139.974 70.3239 139.924C70.4437 139.874 70.5526 139.801 70.6442 139.709C70.7358 139.617 70.8084 139.508 70.8579 139.388C70.9073 139.269 70.9327 139.14 70.9325 139.01Z" fill="white"/>
<path d="M23.9866 112.355H42.7079V103.344H23.9866C23.8568 103.344 23.7284 103.369 23.6086 103.419C23.4888 103.469 23.3799 103.542 23.2883 103.634C23.1967 103.726 23.1241 103.835 23.0746 103.955C23.0252 104.075 22.9998 104.203 23 104.333V111.366C22.9998 111.496 23.0252 111.624 23.0746 111.744C23.1241 111.864 23.1967 111.973 23.2883 112.065C23.3799 112.157 23.4887 112.23 23.6086 112.28C23.7284 112.33 23.8568 112.355 23.9866 112.355Z" fill="white"/>
<path d="M74.0135 103.344H55.292V112.355H74.0135C74.1432 112.355 74.2717 112.33 74.3915 112.28C74.5113 112.23 74.6201 112.157 74.7117 112.065C74.8034 111.973 74.876 111.864 74.9254 111.744C74.9749 111.624 75.0003 111.496 75.0001 111.366V104.333C75.0003 104.203 74.9749 104.075 74.9254 103.955C74.876 103.835 74.8033 103.726 74.7117 103.634C74.6201 103.542 74.5113 103.469 74.3915 103.419C74.2717 103.369 74.1432 103.344 74.0135 103.344Z" fill="white"/>
<path d="M134.714 15.925C135.462 15.925 136.068 15.3169 136.068 14.5667C136.068 13.8166 135.462 13.2085 134.714 13.2085C133.966 13.2085 133.359 13.8166 133.359 14.5667C133.359 15.3169 133.966 15.925 134.714 15.925Z" fill="#FFA800"/>
<path d="M145.548 26.7907C146.296 26.7907 146.902 26.1826 146.902 25.4325C146.902 24.6823 146.296 24.0742 145.548 24.0742C144.8 24.0742 144.193 24.6823 144.193 25.4325C144.193 26.1826 144.8 26.7907 145.548 26.7907Z" fill="#FFA800"/>
<path d="M158.551 20.4075C158.551 20.1358 158.551 19.8642 158.551 19.4567L159.228 14.9745C159.364 14.1596 159.093 13.2088 158.416 12.6655L155.165 9.5416C155.03 9.26995 154.894 9.13413 154.759 8.86248L152.727 4.78778C152.321 3.97284 151.644 3.42954 150.695 3.29372L146.226 2.6146C145.955 2.6146 145.684 2.47878 145.413 2.34295L141.35 0.305603C140.537 -0.101868 139.589 -0.101868 138.912 0.305603L134.849 2.34295C134.578 2.47878 134.307 2.6146 134.036 2.6146L129.567 3.29372C128.754 3.42954 127.941 3.97284 127.535 4.78778L125.503 8.86248C125.368 9.13413 125.233 9.26995 124.962 9.5416L121.847 12.6655C121.169 13.3447 120.898 14.1596 121.034 14.9745L121.711 19.4567C121.711 19.7284 121.711 20 121.711 20.4075L121.034 24.8896C120.898 25.7046 121.169 26.6553 121.847 27.1986L125.097 30.3226C125.233 30.73 125.368 30.8659 125.503 31.1375L127.535 35.2122C127.941 36.0272 128.619 36.5705 129.567 36.7063L134.036 37.3854C134.307 37.3854 134.578 37.5212 134.849 37.657L138.912 39.6944C139.725 40.1019 140.673 40.1019 141.35 39.6944L145.413 37.657C145.684 37.5212 145.955 37.3854 146.226 37.3854L150.695 36.7063C151.508 36.5705 152.321 36.0272 152.727 35.2122L154.759 31.1375C154.894 30.8659 155.03 30.5942 155.3 30.4584L158.551 27.3345C159.228 26.6553 159.499 25.8404 159.364 25.0255L158.551 20.4075ZM134.713 10.4924C137.016 10.4924 138.777 12.2581 138.777 14.5671C138.777 16.8761 137.016 18.6418 134.713 18.6418C132.411 18.6418 130.65 16.8761 130.65 14.5671C130.65 12.2581 132.411 10.4924 134.713 10.4924ZM132.953 29.1002L131.056 27.1986L147.309 10.8998L149.206 12.8014L132.953 29.1002ZM145.549 29.5076C143.246 29.5076 141.485 27.7419 141.485 25.4329C141.485 23.1239 143.246 21.3582 145.549 21.3582C147.851 21.3582 149.612 23.1239 149.612 25.4329C149.612 27.7419 147.851 29.5076 145.549 29.5076Z" fill="#FFA800"/>
</svg>
