<svg width="126" height="141" viewBox="0 0 126 141" fill="none" xmlns="http://www.w3.org/2000/svg">
<circle cx="3.5" cy="32.5" r="3.5" fill="#FFA800"/>
<path d="M109 86.5C109 116.6 84.5995 141 54.5 141C24.4005 141 0 116.6 0 86.5C0 56.4005 24.4005 32 54.5 32C84.5995 32 109 56.4005 109 86.5Z" fill="#97C318"/>
<path d="M53.7305 89.7461L43.1517 106.012C43.1314 106.052 43.091 106.093 43.0707 106.133C43.0707 106.154 43.0505 106.154 43.0505 106.174C43.0303 106.194 43.0101 106.214 42.9696 106.235C42.9494 106.255 42.9494 106.255 42.9292 106.255C42.9089 106.275 42.8685 106.295 42.8482 106.315C42.828 106.315 42.828 106.336 42.8078 106.336C42.7673 106.356 42.7269 106.376 42.6864 106.396C42.6864 106.396 42.6864 106.396 42.6662 106.396C42.6257 106.417 42.5651 106.437 42.5246 106.437H42.5044C42.4639 106.437 42.4235 106.457 42.383 106.457C42.3628 106.457 42.3628 106.457 42.3426 106.457C42.3223 106.457 42.3021 106.457 42.2819 106.457C42.2617 106.457 42.2414 106.457 42.2212 106.457C42.201 106.457 42.201 106.457 42.1807 106.457C42.1403 106.457 42.0796 106.437 42.0392 106.437L18.8789 100.893V120.396L53.7103 126V89.7461H53.7305Z" fill="#D6E8BA"/>
<path d="M27.0454 60.0231C27.0454 58.9104 26.1352 58 25.0227 58C23.9102 58 23 58.9104 23 60.0231C23 61.1358 23.9102 62.0462 25.0227 62.0462C26.1352 62.0462 27.0454 61.1358 27.0454 60.0231Z" fill="white"/>
<path d="M18.1108 98.6262L41.8374 104.291L53.0635 87.0539L18.7378 80.6406L10.4648 96.8054L18.1108 98.6262Z" fill="#D6E8BA"/>
<path d="M121.045 96.0925C123.27 96.0925 125.091 94.2717 125.091 92.0462C125.091 89.8208 123.27 88 121.045 88C118.82 88 117 89.8208 117 92.0462C117 94.2717 118.82 96.0925 121.045 96.0925Z" fill="#97C318"/>
<path d="M88 12C89.1 12 90 11.1 90 10C90 8.9 89.1 8 88 8C86.9 8 86 8.9 86 10C86 11.1 86.9 12 88 12Z" fill="#E2EEF4"/>
<path d="M84 8C85.1 8 86 7.1 86 6C86 4.9 85.1 4 84 4C82.9 4 82 4.9 82 6C82 7.1 82.9 8 84 8Z" fill="#E2EEF4"/>
<path d="M88 4C89.1 4 90 3.1 90 2C90 0.9 89.1 0 88 0C86.9 0 86 0.9 86 2C86 3.1 86.9 4 88 4Z" fill="#E2EEF4"/>
<path d="M92 8C93.1 8 94 7.1 94 6C94 4.9 93.1 4 92 4C90.9 4 90 4.9 90 6C90 7.1 90.9 8 92 8Z" fill="#E2EEF4"/>
<path d="M67.1842 104.291L90.8905 98.6262L98.5566 96.8054L90.6882 80.6406L56.3828 87.0539L67.1842 104.291Z" fill="#D6E8BA"/>
<path d="M61.2278 50.8246C63.5532 50.8208 65.7823 49.8873 67.4266 48.2286C69.0709 46.5699 69.9963 44.3212 70 41.9754V41.7018C70 41.5156 69.9267 41.3371 69.7962 41.2055C69.6658 41.0739 69.4888 41 69.3043 41H64.1635C62.0818 41.0026 60.0687 41.7513 58.4836 43.1126C56.8985 44.4738 55.8444 46.359 55.5096 48.4316C55.8157 48.1719 56.1078 47.8912 56.4 47.6175L57.2 46.8386L57.6035 46.4386C59.4122 44.6702 61.1861 43.1053 63.7391 43.1053C63.9236 43.1053 64.1006 43.1792 64.231 43.3108C64.3615 43.4424 64.4348 43.6209 64.4348 43.807C64.4348 43.9931 64.3615 44.1716 64.231 44.3032C64.1006 44.4348 63.9236 44.5088 63.7391 44.5088C61.5617 44.5088 59.9896 46.0526 58.1739 47.8421C57.7357 48.2702 57.2904 48.7053 56.8313 49.1263C56.5948 49.3509 56.3443 49.5684 56.0939 49.7789C55.8435 49.9895 54.967 50.8316 54.7026 51.007V50.8246C54.7026 50.6561 54.7026 50.4947 54.7026 50.3263C54.6811 49.9586 54.6346 49.5928 54.5635 49.2316C54.1959 47.3068 53.1742 45.5716 51.6745 44.3252C50.1748 43.0788 48.291 42.3992 46.3478 42.4035C46.1633 42.4035 45.9864 42.4774 45.8559 42.609C45.7255 42.7407 45.6522 42.9191 45.6522 43.1053C45.6522 43.2914 45.7255 43.4699 45.8559 43.6015C45.9864 43.7331 46.1633 43.807 46.3478 43.807C48.1928 43.807 49.9622 44.5464 51.2668 45.8624C52.5714 47.1785 53.3043 48.9634 53.3043 50.8246V54.6772H53.1096C53.1727 54.6986 53.2381 54.7127 53.3043 54.7193C53.7637 54.8105 54.2363 54.8105 54.6957 54.7193L54.9113 54.6702C55.3135 54.5631 55.6899 54.3745 56.0174 54.1158C56.0886 54.0577 56.1705 54.0144 56.2584 53.9883C56.3463 53.9621 56.4384 53.9537 56.5294 53.9635C56.6205 53.9733 56.7088 54.001 56.7892 54.0452C56.8697 54.0894 56.9407 54.1492 56.9983 54.2211C57.0558 54.2929 57.0988 54.3755 57.1247 54.4642C57.1506 54.5528 57.1589 54.6457 57.1492 54.7376C57.1395 54.8295 57.112 54.9185 57.0682 54.9997C57.0244 55.0808 56.9652 55.1525 56.8939 55.2105C56.0676 55.861 55.0482 56.2121 54 56.207C52.9654 56.2151 51.9582 55.8715 51.1409 55.2316C51.0095 55.1202 50.9235 54.9637 50.8996 54.7922C50.8757 54.6207 50.9154 54.4463 51.0113 54.3027C51.1071 54.159 51.2522 54.0561 51.4186 54.0138C51.5851 53.9716 51.7612 53.9929 51.913 54.0737V51.8211C51.0925 51.6246 50.252 51.5257 49.4087 51.5263C45.9791 51.5263 38 52.6702 38 63.3018C38 72.7263 44.1913 81 51.2174 81H51.4748C53.1368 80.8595 54.8075 80.8595 56.4696 81H56.7826C63.8087 81 70 72.7263 70 63.3018C70 52.6702 62.0209 51.5263 58.5913 51.5263C57.6881 51.5254 56.7884 51.6386 55.913 51.8632C56.3652 51.5263 56.7826 51.1895 57.2 50.8246H61.2278ZM61.0122 55.393C61.0491 55.3086 61.1022 55.2324 61.1684 55.1688C61.2345 55.1051 61.3125 55.0553 61.3978 55.022C61.483 54.9888 61.574 54.9728 61.6654 54.9751C61.7568 54.9773 61.8469 54.9977 61.9304 55.0351C62.1878 55.1544 62.4452 55.2807 62.6957 55.4211C62.8562 55.5141 62.9735 55.6677 63.0217 55.848C63.07 56.0283 63.0453 56.2205 62.953 56.3825C62.9074 56.4626 62.8465 56.5329 62.7739 56.5894C62.7013 56.6458 62.6183 56.6873 62.5298 56.7114C62.3511 56.7601 62.1605 56.7352 62 56.6421C61.7985 56.5229 61.5893 56.4174 61.3739 56.3263C61.2888 56.2897 61.2118 56.2364 61.1474 56.1694C61.083 56.1024 61.0324 56.0232 60.9988 55.9363C60.9651 55.8494 60.9489 55.7566 60.9512 55.6633C60.9535 55.57 60.9742 55.4781 61.0122 55.393ZM64.0174 57.2947C64.1607 57.1792 64.3434 57.1254 64.5258 57.1452C64.7082 57.1649 64.8755 57.2565 64.9913 57.4C66.5366 59.5082 67.3219 62.0855 67.2174 64.7053C67.2174 64.8914 67.1441 65.0699 67.0136 65.2015C66.8832 65.3331 66.7062 65.407 66.5217 65.407C66.3372 65.407 66.1603 65.3331 66.0298 65.2015C65.8994 65.0699 65.8261 64.8914 65.8261 64.7053C65.9311 62.4066 65.2536 60.1409 63.9061 58.2842C63.8487 58.212 63.806 58.129 63.7805 58.0401C63.7551 57.9512 63.7473 57.8581 63.7576 57.7661C63.768 57.6741 63.7962 57.5851 63.8408 57.5042C63.8854 57.4233 63.9454 57.3521 64.0174 57.2947Z" fill="white"/>
<path d="M66.7973 106.457C66.7771 106.457 66.7568 106.457 66.7568 106.457C66.7366 106.457 66.7164 106.457 66.7164 106.457C66.6961 106.457 66.6962 106.457 66.6759 106.457C66.6557 106.457 66.6355 106.457 66.6152 106.457C66.595 106.457 66.5546 106.457 66.5343 106.437C66.5141 106.437 66.4939 106.437 66.4737 106.437C66.4332 106.417 66.3927 106.417 66.3523 106.397C66.3321 106.397 66.3321 106.377 66.3118 106.377C66.2916 106.356 66.2511 106.356 66.2309 106.336C66.2107 106.336 66.1905 106.316 66.1905 106.316C66.1702 106.296 66.15 106.275 66.1096 106.255C66.0893 106.235 66.0893 106.235 66.0691 106.215C66.0489 106.194 66.0286 106.174 66.0084 106.154C65.9882 106.134 65.9882 106.134 65.968 106.114C65.9275 106.073 65.9073 106.033 65.8871 105.992L55.7734 89.8477V126.001L90.1395 120.397V100.894L66.9591 106.437C66.8984 106.437 66.858 106.457 66.7973 106.457ZM79.3179 113.741L79.4393 113.721C80.5316 113.518 81.5834 114.247 81.8059 115.339C82.0082 116.431 81.28 117.484 80.1877 117.706L80.0664 117.726C78.9741 117.929 77.9223 117.2 77.6998 116.108C77.4975 114.995 78.2055 113.943 79.3179 113.741ZM73.3509 114.853L73.4723 114.833C74.5645 114.631 75.6164 115.359 75.8389 116.452C76.0411 117.544 75.313 118.596 74.2207 118.819L74.0993 118.839C73.007 119.041 71.9552 118.313 71.7327 117.221C71.5305 116.108 72.2384 115.056 73.3509 114.853ZM67.5052 115.946C68.5975 115.744 69.6493 116.472 69.8718 117.564C70.0741 118.657 69.3459 119.709 68.2536 119.931L68.1323 119.952C67.04 120.154 65.9882 119.426 65.7657 118.333C65.5634 117.241 66.2916 116.189 67.3839 115.966L67.5052 115.946Z" fill="#D6E8BA"/>
</svg>
