<svg width="111" height="111" viewBox="0 0 111 111" fill="none" xmlns="http://www.w3.org/2000/svg">
<path d="M111 55.5C111 86.1518 86.1518 111 55.5 111C24.8482 111 0 86.1518 0 55.5C0 24.8482 24.8482 0 55.5 0C86.1518 0 111 24.8482 111 55.5Z" fill="#97C318"/>
<path d="M40.9236 70.7795C31.7537 74.3673 25.5527 73.139 22.8905 72.2273C23.3136 66.1997 31.064 61.1661 40.7687 60.8181C49.2694 60.5128 56.5464 63.8984 58.7956 68.7621C55.1884 67.9347 49.1088 67.5762 40.9236 70.7795Z" fill="white"/>
<path d="M41.5976 83.8811C32.5082 84.2075 24.8191 80.3141 23.1785 74.905C26.6538 75.8528 33.023 76.5267 41.8247 73.0824C50.6058 69.646 56.6595 70.6259 59.4964 71.5161C59.4997 71.5743 59.5074 71.6327 59.5099 71.6917C59.7386 78.0601 51.7184 83.5177 41.5976 83.8811Z" fill="white"/>
<path d="M36.1733 45.0303C28.584 42.2472 25.4307 38.0615 24.3111 36.0901C27.9363 32.7875 35.3573 33.9656 41.4567 38.9838C46.7701 43.3547 49.4135 49.2704 48.3288 53.4961C46.4927 50.9875 42.9001 47.4949 36.1733 45.0303Z" fill="white"/>
<path d="M22.7646 38.3056C24.4536 40.8316 28.0621 44.6894 35.3233 47.3517C42.6577 50.0395 45.8262 53.9734 47.046 56.0255C43.673 60.0211 35.7741 58.9963 29.3452 53.7064C23.648 49.0194 21.0161 42.557 22.7646 38.3056Z" fill="white"/>
<path d="M70.699 64.9918C70.699 64.9918 58.8534 65.7285 54.6581 53.2058C54.6581 53.2058 53.1774 47.8039 54.6581 37C54.6581 37 68.5263 37 74.8943 48.2954C74.8943 48.2954 78.1845 55.9893 73.4136 63.5191C73.4136 63.5191 70.2879 54.3515 63.3779 50.0958C63.3779 50.0963 70.9458 59.7539 70.699 64.9918Z" fill="#D6E8BA"/>
<path d="M77.7825 53.051C77.7825 53.051 78.1157 46.7291 72 42.1887C72 42.1887 77.9455 31.3576 93.9275 32.0301C93.9275 32.0301 96.3406 44.3958 93.9275 52.21C93.9275 52.21 91.8081 63.982 75.3358 66C75.3358 66 77.6191 52.8512 85.4477 48.9994C85.4477 48.9994 80.881 48.679 77.7825 53.051Z" fill="#D6E8BA"/>
</svg>
