<svg width="111" height="111" viewBox="0 0 111 111" fill="none" xmlns="http://www.w3.org/2000/svg">
<path d="M111 55.5C111 86.1518 86.1518 111 55.5 111C24.8482 111 0 86.1518 0 55.5C0 24.8482 24.8482 0 55.5 0C86.1518 0 111 24.8482 111 55.5Z" fill="#97C318"/>
<path d="M67.3967 93.2361H43.4146C37.7947 93.2361 33.2227 88.6633 33.2227 83.0459V72.356C33.2227 64.1397 37.8015 56.6081 45.0031 52.7762V42.2304C45.0031 38.6227 47.9389 35.6879 51.5473 35.6879H59.2623C62.8699 35.6879 65.8065 38.6227 65.8065 42.2304V52.7762C73.009 56.6055 77.587 64.1397 77.587 72.356V83.0459C77.5878 88.6633 73.0158 93.2361 67.3967 93.2361ZM51.5482 40.1217C50.3843 40.1217 49.4378 41.0673 49.4378 42.2304V54.1567C49.4378 55.0281 48.9271 55.8194 48.1316 56.1783C41.7681 59.0441 37.6565 65.3957 37.6565 72.356V83.0459C37.6565 86.2212 40.2393 88.8023 43.4137 88.8023H67.3959C70.5695 88.8023 73.1531 86.2212 73.1531 83.0459V72.356C73.1531 65.3931 69.0424 59.045 62.6789 56.1783C61.8834 55.8202 61.3726 55.0281 61.3726 54.1567V42.2304C61.3726 41.0673 60.4262 40.1217 59.2623 40.1217H51.5482Z" fill="white"/>
<path d="M38.9798 18H33V26.2282H38.9798V18Z" fill="#D6E8BA"/>
<path d="M60.4026 18H40.7666V26.1183C42.5103 26.3655 44.1303 26.9948 45.5466 27.9097C44.19 33.1297 39.6035 33.5748 39.6035 33.5748V35.1642C44.8713 35.5735 47.6817 32.399 48.7117 30.8872C50.151 32.8535 51.002 35.2785 51.002 37.9047H60.0394V25.9742H68.3759C68.3759 21.571 64.8058 18 60.4026 18Z" fill="white"/>
<path d="M70.9523 77.0063C70.8227 73.877 68.2562 71.3685 65.0954 71.3685C64.6997 71.3685 64.3126 71.4094 63.9392 71.4844C62.8546 68.3901 59.9325 66.1493 56.4715 66.1493C53.1589 66.1493 50.3212 68.1906 49.13 71.0769C48.3302 70.7392 47.4545 70.5516 46.5336 70.5516C42.9243 70.5516 39.9928 73.4268 39.8607 77.0063L39.8359 82.7567C39.8359 84.8986 41.5796 86.6423 43.7233 86.6423H67.0915C69.2342 86.6423 70.9779 84.8986 70.9779 82.7567L70.9523 77.0063Z" fill="#D6E8BA"/>
<path d="M57.2961 62.5349C59.0992 62.5349 60.561 61.0731 60.561 59.27C60.561 57.4669 59.0992 56.0051 57.2961 56.0051C55.493 56.0051 54.0312 57.4669 54.0312 59.27C54.0312 61.0731 55.493 62.5349 57.2961 62.5349Z" fill="#D6E8BA"/>
<path d="M56.4548 51.6711C56.4548 53.0123 55.3711 54.0961 54.0324 54.0961C52.6912 54.0961 51.6074 53.0123 51.6074 51.6711C51.6074 50.3333 52.6912 49.2495 54.0324 49.2495C55.3711 49.2495 56.4548 50.3333 56.4548 51.6711Z" fill="#D6E8BA"/>
</svg>
