<svg width="155" height="161" viewBox="0 0 155 161" fill="none" xmlns="http://www.w3.org/2000/svg">
<circle cx="49.5" cy="111.5" r="49.5" fill="#97C318"/>
<g clip-path="url(#clip0)">
<path d="M53.1356 96.732C52.9884 99.6613 50.486 101.858 47.542 101.565C45.7756 101.565 44.3036 100.54 43.4204 99.0754C40.9179 100.833 37.6795 103.616 34.5883 107.571C34.5883 108.156 34.5883 108.742 34.5883 109.328H32.2331C32.2331 107.863 32.2331 106.106 32.3803 104.348C30.3195 102.591 28.2586 101.126 26.6394 100.101C25.4618 101.858 23.2538 103.03 21.0458 102.444C18.249 101.712 16.4826 98.929 17.0714 96.1461C17.8074 93.3632 20.6042 91.6056 23.401 92.1915C26.1978 92.9238 27.9642 95.7067 27.3754 98.4896C27.3754 98.636 27.2282 98.7825 27.2282 98.929C29.2891 99.6613 31.0555 100.833 32.6747 102.151C32.9691 100.101 33.4107 97.9037 33.9995 95.7067C32.6747 92.9238 31.2027 90.5803 29.8779 88.9692C28.1114 90.2874 25.7562 90.4339 23.8426 89.1157C21.4874 87.651 20.7514 84.2822 22.3706 81.9388C23.8426 79.5953 27.2282 78.8629 29.5835 80.4741C31.9387 81.9388 32.6747 85.3075 31.0555 87.651C30.9083 87.7975 30.9083 87.7975 30.7611 87.9439C32.3803 89.4086 33.7051 91.1662 34.8827 93.0703C35.6187 90.7268 36.9435 88.2369 38.7099 86.0398C37.5323 85.0146 36.9435 83.6964 36.9435 82.0852C36.9435 79.1559 39.2987 76.9589 42.0955 76.9589C44.8924 76.9589 47.2476 79.3023 47.2476 82.0852C47.2476 84.8681 44.8924 87.2116 42.0955 87.2116C41.2123 87.2116 40.4763 87.0651 39.7403 86.6257C37.6795 90.4339 35.3243 96.1461 34.7355 104.202C36.9435 101.712 39.5931 99.5148 42.8316 97.9037C42.6844 97.3178 42.5371 96.5855 42.5371 95.9996C42.6844 93.0703 45.1868 90.8733 48.1308 91.1662C51.0748 91.4591 53.2828 93.8026 53.1356 96.732Z" fill="white"/>
<path d="M21.4877 119.874H45.4814L42.5374 136.425C42.3902 137.596 41.3598 138.329 40.1822 138.329H26.6397C25.4621 138.329 24.5789 137.596 24.2845 136.425L21.4877 119.874Z" fill="#D6E8BA"/>
<path d="M48.8672 114.747C48.8672 115.626 48.4256 116.505 47.8368 117.091C47.248 117.677 46.3648 117.97 45.4816 117.97H21.3406C19.5742 117.97 18.1022 116.505 18.1022 114.747C18.1022 113.869 18.5438 112.99 19.1326 112.404C19.7214 111.818 20.6046 111.379 21.4878 111.379H45.4816C47.248 111.525 48.8672 112.99 48.8672 114.747Z" fill="#D6E8BA"/>
<path d="M69.3356 81.4233L57.2479 86.0772C56.1291 86.5547 55.6929 87.7515 56.163 88.8683L65.6525 108.189C66.1284 109.105 67.1207 109.529 68.1362 109.15L76.3629 106.018C77.3784 105.639 77.8088 104.643 77.637 103.633L71.9052 82.8892C71.6359 81.777 70.3511 81.044 69.3356 81.4233ZM69.164 104.849C69.164 104.849 69.0607 104.948 69.164 104.849C68.5559 105.037 68.1601 104.827 67.9709 104.42L60.9527 89.9822C60.7635 89.5757 60.9816 88.9773 61.389 88.7854C61.7963 88.5935 62.3928 88.8081 62.5821 89.2146L69.6002 103.653C69.7894 104.059 69.5713 104.658 69.164 104.849Z" fill="white"/>
<path d="M75.8986 108.22L70.0068 110.5C69.7027 110.594 69.4904 110.991 69.6796 111.398L70.6083 114.033C70.981 115.047 72.1683 115.677 73.287 115.2L76.6373 113.968C77.6528 113.589 78.2898 112.397 77.8197 111.28L76.8909 108.644C76.5985 108.336 76.2027 108.126 75.8986 108.22Z" fill="#D6E8BA"/>
<path d="M75.6832 131.21H57.3446C56.4786 131.21 55.8164 131.873 55.8164 132.74V140.594C55.8164 143.297 58.0068 145.49 60.7067 145.49H72.3211C75.021 145.49 77.2114 143.297 77.2114 140.594V132.74C77.2114 131.873 76.5492 131.21 75.6832 131.21ZM60.9105 134.27H58.8728V140.594C58.8728 141.614 59.6879 142.43 60.7067 142.43C61.0123 142.43 61.2161 142.634 61.2161 142.94C61.2161 143.246 61.0123 143.45 60.7067 143.45C59.1275 143.45 57.854 142.175 57.854 140.594V133.76C57.854 133.454 58.0578 133.25 58.3634 133.25H60.9105C61.2161 133.25 61.4199 133.454 61.4199 133.76C61.4199 134.066 61.2161 134.27 60.9105 134.27Z" fill="#D6E8BA"/>
<path d="M54.7979 140.594V132.74C54.7979 131.312 55.9186 130.19 57.345 130.19H57.4468C57.3959 130.037 57.345 129.833 57.345 129.68V127.64C57.345 127.487 57.3959 127.283 57.4468 127.13H57.345C53.1169 127.13 49.7039 130.547 49.7039 134.78C49.7039 135.086 49.5001 135.29 49.1945 135.29C48.8888 135.29 48.6851 135.086 48.6851 134.78C48.6851 129.986 52.5566 126.11 57.345 126.11C57.7015 126.11 58.0581 126.11 58.4147 126.161C58.5675 126.161 58.7204 126.11 58.8732 126.11H59.3826V124.273C58.7204 124.12 58.0072 124.069 57.345 124.069C51.4359 124.069 46.6475 128.864 46.6475 134.78C46.6475 140.696 51.4359 145.49 57.345 145.49H57.3959C55.7658 144.368 54.7979 142.532 54.7979 140.594Z" fill="#AAD682"/>
<path d="M74.1558 127.13H72.6276V126.365C72.6276 125.396 71.8125 124.58 70.8447 124.58H63.9677C63.7639 124.58 63.6111 124.478 63.4583 124.376L61.2679 122.182C61.115 122.029 60.9113 121.978 60.7075 122.08C60.5038 122.131 60.4019 122.335 60.4019 122.539V127.13H58.8737C58.568 127.13 58.3643 127.334 58.3643 127.64V129.68C58.3643 129.986 58.568 130.19 58.8737 130.19H74.1558C74.4614 130.19 74.6652 129.986 74.6652 129.68V127.64C74.6652 127.334 74.4614 127.13 74.1558 127.13Z" fill="white"/>
</g>
<path d="M129.714 15.925C130.462 15.925 131.068 15.3169 131.068 14.5667C131.068 13.8166 130.462 13.2085 129.714 13.2085C128.966 13.2085 128.359 13.8166 128.359 14.5667C128.359 15.3169 128.966 15.925 129.714 15.925Z" fill="#FFA800"/>
<path d="M140.548 26.7907C141.296 26.7907 141.902 26.1826 141.902 25.4325C141.902 24.6823 141.296 24.0742 140.548 24.0742C139.8 24.0742 139.193 24.6823 139.193 25.4325C139.193 26.1826 139.8 26.7907 140.548 26.7907Z" fill="#FFA800"/>
<path d="M153.551 20.4075C153.551 20.1358 153.551 19.8642 153.551 19.4567L154.228 14.9745C154.364 14.1596 154.093 13.2088 153.416 12.6655L150.165 9.5416C150.03 9.26995 149.894 9.13413 149.759 8.86248L147.727 4.78778C147.321 3.97284 146.644 3.42954 145.695 3.29372L141.226 2.6146C140.955 2.6146 140.684 2.47878 140.413 2.34295L136.35 0.305603C135.537 -0.101868 134.589 -0.101868 133.912 0.305603L129.849 2.34295C129.578 2.47878 129.307 2.6146 129.036 2.6146L124.567 3.29372C123.754 3.42954 122.941 3.97284 122.535 4.78778L120.503 8.86248C120.368 9.13413 120.233 9.26995 119.962 9.5416L116.847 12.6655C116.169 13.3447 115.898 14.1596 116.034 14.9745L116.711 19.4567C116.711 19.7284 116.711 20 116.711 20.4075L116.034 24.8896C115.898 25.7046 116.169 26.6553 116.847 27.1986L120.097 30.3226C120.233 30.73 120.368 30.8659 120.503 31.1375L122.535 35.2122C122.941 36.0272 123.619 36.5705 124.567 36.7063L129.036 37.3854C129.307 37.3854 129.578 37.5212 129.849 37.657L133.912 39.6944C134.725 40.1019 135.673 40.1019 136.35 39.6944L140.413 37.657C140.684 37.5212 140.955 37.3854 141.226 37.3854L145.695 36.7063C146.508 36.5705 147.321 36.0272 147.727 35.2122L149.759 31.1375C149.894 30.8659 150.03 30.5942 150.3 30.4584L153.551 27.3345C154.228 26.6553 154.499 25.8404 154.364 25.0255L153.551 20.4075ZM129.713 10.4924C132.016 10.4924 133.777 12.2581 133.777 14.5671C133.777 16.8761 132.016 18.6418 129.713 18.6418C127.411 18.6418 125.65 16.8761 125.65 14.5671C125.65 12.2581 127.411 10.4924 129.713 10.4924ZM127.953 29.1002L126.056 27.1986L142.309 10.8998L144.206 12.8014L127.953 29.1002ZM140.549 29.5076C138.246 29.5076 136.485 27.7419 136.485 25.4329C136.485 23.1239 138.246 21.3582 140.549 21.3582C142.851 21.3582 144.612 23.1239 144.612 25.4329C144.612 27.7419 142.851 29.5076 140.549 29.5076Z" fill="#FFA800"/>
<defs>
<clipPath id="clip0">
<rect width="68" height="70" fill="white" transform="translate(16 76)"/>
</clipPath>
</defs>
</svg>
