<svg width="111" height="119" viewBox="0 0 111 119" fill="none" xmlns="http://www.w3.org/2000/svg">
<circle cx="61.5" cy="49.5" r="49.5" fill="#97C318"/>
<circle cx="6" cy="113" r="6" fill="#FFA800"/>
<path d="M69.1697 31.8377C69.5612 30.1409 71.0622 28.9662 72.759 28.9662C73.0853 28.9662 73.4116 29.0315 73.7379 29.0967L75.1084 29.4883L74.1947 22.7664L77.262 24.2674C77.9146 24.5937 78.763 24.2674 79.024 23.6148L81.3082 18.2635C81.5692 17.6761 81.3734 16.9582 80.7861 16.6319L73.999 12.129C72.4327 11.15 70.6054 10.7585 68.7781 11.15L66.1677 11.6721C66.0372 11.6721 65.9066 11.8027 65.9066 11.9984C65.7761 13.6952 64.2099 15.1962 62.1215 15.653C59.9679 16.1099 57.9448 15.2615 57.227 13.7605C57.1617 13.63 57.0312 13.5647 56.9007 13.5647L54.225 14.0868C52.463 14.4783 50.8314 15.5225 49.7873 16.9582L45.219 23.6148C44.8275 24.1369 44.8927 24.8548 45.3495 25.3116L49.5262 29.3578C50.0483 29.8799 50.962 29.8146 51.4188 29.2925L53.6376 26.7473L58.0101 43.4541C58.2059 44.1067 58.8585 44.5635 59.5111 44.433L66.755 42.9972L69.1697 31.8377Z" fill="#D6E8BA"/>
<path d="M90.2491 36.2755L73.0203 31.7072C72.4329 31.5767 71.9108 31.903 71.7803 32.4903L64.0796 68.1227C63.949 68.6447 64.2753 69.1668 64.7974 69.2974L68.7783 70.3415C69.3004 70.472 69.8225 70.211 70.0183 69.6889L78.8937 43.8457C78.959 43.7152 79.1548 43.7804 79.1548 43.911L73.9339 70.7331C73.8034 71.2552 74.1297 71.7773 74.6518 71.9078L78.6327 72.952C79.1548 73.0825 79.6769 72.8214 79.8726 72.2993L90.967 37.5154C91.0975 36.9933 90.8364 36.406 90.2491 36.2755Z" fill="white"/>
<path d="M58.1286 55.4838L61.3376 57.9547C61.9481 58.4524 62.8693 58.1874 63.18 57.4247L64.9148 53.1057C65.0959 52.6002 64.9549 52.0498 64.5189 51.6943L60.0621 47.9884C58.6667 46.8508 56.9247 46.1564 55.1761 46.1098L52.8707 46.0447L48.2196 44.1397L48.1569 43.5806C49.8943 42.8198 50.7572 40.6203 49.7507 38.7113C49.261 37.8765 48.4761 37.2366 47.5883 37.0935C46.3697 36.8257 45.1443 37.2057 44.373 38.1009C43.662 38.8276 43.4653 39.901 43.5817 40.9393L43.5996 41.0991C43.6354 41.4185 43.8971 41.6318 44.2101 41.5968L45.071 41.5003C45.384 41.4652 45.5919 41.1993 45.5561 40.8798L45.5203 40.5603C45.4756 40.1609 45.5873 39.744 45.9428 39.3807C46.229 39.106 46.6807 38.8936 47.0899 39.0095C47.6467 39.028 48.0827 39.3835 48.2236 39.9338C48.5569 40.7861 48.0114 41.5751 47.4032 41.805C46.6385 42.0525 46.2495 42.8239 46.3301 43.5428L46.4285 44.4213L42.3145 47.3087L40.0807 47.8825C38.3859 48.3151 36.8409 49.3779 35.7319 50.7962L32.2061 55.3969C31.8596 55.8401 31.844 56.4079 32.2107 56.8521L34.8586 60.6799C35.3305 61.3549 36.2875 61.4094 36.7727 60.7889L39.355 57.6688L42.2515 65.836C42.5937 66.7682 42.6318 67.8153 42.4262 68.8088L37.4281 86.4335C37.0414 87.9326 38.2378 89.416 39.8031 89.2406L64.377 86.4863C65.8639 86.3197 66.7895 84.6793 66.0716 83.2231L57.5909 66.9474C57.0921 66.0328 56.9847 65.0743 57.0249 64.0185L58.1286 55.4838ZM49.0253 51.3281C48.7235 52.1707 47.5496 52.3023 47.0687 51.5474L44.6736 47.853L47.3902 45.9311L50.4649 47.2039L49.0253 51.3281Z" fill="white"/>
</svg>
