<svg width="500" height="316" viewBox="0 0 500 316" fill="none" xmlns="http://www.w3.org/2000/svg">
<path d="M283.213 274.388C280.919 269.81 276.793 266.565 271.313 266.785C269.694 266.85 268.07 267.707 267.571 268.828C266.925 270.281 267.86 272.52 271.131 275.443C276.069 279.305 280.755 280.682 285.321 279.595C284.86 278.02 284.165 276.289 283.213 274.388ZM292.148 261.525C288.184 255.663 285.165 253.807 283.04 255.115C279.92 257.034 279.682 258.89 283.483 264.422C287.193 268.231 290.999 269.945 295.021 269.578C294.942 267.285 294.049 264.611 292.148 261.525ZM266.418 280.299C264.156 277.485 261.331 276.129 258.288 277.065C254.822 278.997 255.233 281.96 260.281 287.061C264.216 291.036 267.761 293.167 271.313 293.763C271.688 289.283 270.049 284.817 266.417 280.299H266.418ZM270.775 296.713C266.627 295.999 262.511 293.578 258.149 289.171C251.837 282.793 251.187 277.475 256.985 274.358C257.062 274.316 257.144 274.281 257.228 274.254C261.712 272.784 265.762 274.694 268.756 278.42C272.88 283.55 274.725 288.735 274.312 293.91C274.23 294.93 274.063 295.942 273.814 296.935C272.63 301.673 269.552 306.392 264.598 311.044C264.308 311.316 263.921 311.462 263.523 311.449C263.126 311.436 262.749 311.266 262.477 310.976C262.205 310.686 262.059 310.299 262.072 309.902C262.084 309.504 262.255 309.128 262.545 308.856C266.911 304.756 269.649 300.724 270.775 296.713C271.051 295.729 271.23 294.746 271.313 293.763C272.309 293.931 273.306 293.977 274.313 293.91C276.308 293.777 278.341 293.196 280.479 292.22C281.954 291.547 282.873 290.986 283.87 289.904C285.518 288.117 286.311 285.719 285.936 282.53C285.813 281.536 285.606 280.554 285.32 279.595C286.291 279.36 287.236 279.028 288.14 278.603C289.47 277.984 290.791 277.153 292.108 276.108C293.188 275.251 294.087 274.122 294.596 272.612C294.664 272.412 294.724 272.207 294.777 271.995C294.971 271.204 295.053 270.391 295.021 269.578C296.03 269.481 297.026 269.268 297.987 268.944C299.575 268.416 301.198 267.581 302.865 266.441C307.327 262.474 307.965 256.446 304.599 248.033C304.459 247.665 304.469 247.257 304.627 246.897C304.786 246.537 305.079 246.253 305.444 246.107C305.809 245.961 306.217 245.964 306.58 246.116C306.943 246.268 307.231 246.556 307.384 246.919C311.194 256.443 310.387 263.832 304.778 268.753C302.336 270.449 300.059 271.534 297.821 272.117C296.737 272.4 295.661 272.565 294.596 272.612C289.91 272.82 285.422 270.751 281.24 266.418C281.183 266.359 281.131 266.295 281.085 266.228C276.295 259.293 276.751 255.461 281.468 252.558C285.468 250.098 289.874 252.806 294.668 259.898C296.712 263.214 297.778 266.229 297.987 268.944C298.073 270.004 298.017 271.071 297.821 272.117C297.782 272.321 297.737 272.523 297.687 272.723C297.048 275.275 295.67 277.113 293.972 278.459C292.277 279.803 290.557 280.845 288.815 281.586C287.862 281.991 286.902 282.306 285.936 282.53C280.508 283.792 274.896 282.195 269.208 277.743C264.998 273.987 263.543 270.502 264.83 267.609C265.853 265.309 268.533 263.895 271.192 263.788C278.035 263.513 283.125 267.515 285.895 273.044C286.887 275.024 287.63 276.875 288.141 278.604C288.448 279.642 288.671 280.636 288.815 281.586C289.472 285.941 288.444 289.37 286.075 291.938C285.323 292.748 284.461 293.45 283.515 294.022C283.16 294.238 282.809 294.43 282.449 294.609C282.209 294.728 282.175 294.744 281.725 294.949C279.006 296.189 276.391 296.874 273.814 296.935C272.796 296.96 271.777 296.885 270.774 296.713H270.775Z" fill="#FFA800"/>
<path d="M354.5 17C359.194 17 363 13.1944 363 8.5C363 3.80558 359.194 0 354.5 0C349.806 0 346 3.80558 346 8.5C346 13.1944 349.806 17 354.5 17Z" fill="#FFD7D2"/>
<path d="M467.961 40.1891C462.973 41.347 458.852 44.5984 457.783 49.9778C457.466 51.5664 457.92 53.3459 458.892 54.0941C460.154 55.0618 462.549 54.6779 466.157 52.1824C471.068 48.2861 473.504 44.0528 473.517 39.3589C471.877 39.4392 470.032 39.7084 467.961 40.1891ZM457.548 28.4891C450.922 30.9703 448.409 33.4719 449.183 35.8429C450.318 39.3266 452.067 39.9921 458.335 37.5918C462.907 34.8787 465.465 31.5786 466.05 27.5831C463.803 27.1226 460.993 27.3651 457.548 28.4891ZM469.774 57.9016C466.508 59.4416 464.528 61.8711 464.726 65.0486C465.793 68.8709 468.77 69.1641 474.91 65.4512C479.697 62.5571 482.598 59.6099 484.01 56.2962C479.744 54.8826 475.017 55.4294 469.774 57.9016ZM486.752 57.5101C485.086 61.3755 481.769 64.8097 476.462 68.0189C468.784 72.662 463.461 72.0473 461.79 65.681C461.767 65.5956 461.752 65.5084 461.745 65.4204C461.366 60.7163 464.172 57.2269 468.495 55.1885C474.449 52.3814 479.921 51.8012 484.856 53.4148C485.828 53.7337 486.773 54.1327 487.679 54.6077C492.008 56.8686 495.875 60.9662 499.238 66.8706C499.434 67.2164 499.486 67.6263 499.381 68.01C499.275 68.3937 499.022 68.7199 498.676 68.9168C498.33 69.1136 497.92 69.1651 497.537 69.0597C497.153 68.9544 496.827 68.701 496.63 68.3552C493.667 63.1502 490.388 59.5433 486.752 57.5101C485.878 57.0193 484.96 56.6128 484.01 56.2962C484.403 55.3721 484.687 54.405 484.856 53.4148C485.194 51.442 485.104 49.3301 484.657 47.0229C484.348 45.4314 484.018 44.4079 483.2 43.1843C481.848 41.1636 479.702 39.8302 476.515 39.4487C475.519 39.3357 474.517 39.3061 473.517 39.3602C473.516 38.3609 473.415 37.3642 473.213 36.3855C472.922 34.9477 472.423 33.469 471.717 31.9445C471.137 30.6931 470.25 29.5555 468.9 28.7066C468.719 28.5921 468.532 28.485 468.342 28.3854C467.62 28.0119 466.848 27.7418 466.05 27.5831C466.193 26.579 466.219 25.5617 466.128 24.5515C465.987 22.8838 465.556 21.1091 464.838 19.2223C462.026 13.956 456.316 11.9239 447.348 13.2259C446.954 13.2832 446.554 13.1817 446.235 12.9438C445.916 12.7059 445.705 12.351 445.648 11.9573C445.59 11.5635 445.692 11.1632 445.93 10.8443C446.168 10.5254 446.523 10.314 446.916 10.2568C457.069 8.78301 464.063 11.2983 467.533 17.9037C468.611 20.6753 469.132 23.1434 469.175 25.4551C469.198 26.5456 469.106 27.6355 468.9 28.7066C468.005 33.3107 464.942 37.1896 459.75 40.2402C459.68 40.2818 459.606 40.3176 459.53 40.3473C451.665 43.3781 448.046 42.0388 446.33 36.7732C444.874 32.3068 448.539 28.6591 456.556 25.6595C460.259 24.4486 463.441 24.1181 466.129 24.5511C467.18 24.7158 468.205 25.0201 469.176 25.456C469.364 25.5404 469.55 25.6313 469.732 25.7269C472.064 26.9455 473.527 28.7162 474.438 30.6833C475.349 32.6453 475.959 34.5624 476.271 36.4289C476.439 37.4266 476.521 38.437 476.515 39.4487C476.47 45.0214 473.603 50.1026 467.943 54.5907C463.306 57.8027 459.577 58.4014 457.066 56.4733C455.069 54.9398 454.321 52.0027 454.84 49.3924C456.176 42.6759 461.26 38.6651 467.282 37.2667C469.438 36.7661 471.414 36.4777 473.213 36.3855C474.294 36.3304 475.313 36.3453 476.271 36.4289C480.659 36.8097 483.752 38.612 485.693 41.5166C486.322 42.4558 486.784 43.453 487.119 44.4948C487.247 44.8901 487.351 45.2755 487.441 45.668C487.5 45.9292 487.508 45.9661 487.602 46.4508C488.171 49.3859 488.224 52.0875 487.679 54.6077C487.465 55.603 487.154 56.5751 486.752 57.5101Z" fill="#BDBDBD"/>
<path d="M396.5 316C398.985 316 401 313.985 401 311.5C401 309.015 398.985 307 396.5 307C394.015 307 392 309.015 392 311.5C392 313.985 394.015 316 396.5 316Z" fill="#FFD7D2"/>
<path d="M5.5 69C8.53757 69 11 66.5376 11 63.5C11 60.4624 8.53757 58 5.5 58C2.46243 58 0 60.4624 0 63.5C0 66.5376 2.46243 69 5.5 69Z" fill="#BDBDBD"/>
<path fill-rule="evenodd" clip-rule="evenodd" d="M202 205.5C202 201.91 204.91 199 208.5 199C212.09 199 215 201.91 215 205.5C215 209.09 212.09 212 208.5 212C204.91 212 202 209.09 202 205.5Z" fill="#AAD682"/>
<path fill-rule="evenodd" clip-rule="evenodd" d="M292.047 57.4629L280.987 59.3332L268.562 35.7837L272.624 34.2783L292.047 57.4629Z" fill="#97C318"/>
<path fill-rule="evenodd" clip-rule="evenodd" d="M113.498 94.748L103.299 99.4162L85.202 79.8859L88.7357 77.3804L113.498 94.748Z" fill="#FFD7D2"/>
<path fill-rule="evenodd" clip-rule="evenodd" d="M172.227 32.255L161.24 30L148 53.101L152.007 54.747L172.227 32.255Z" fill="#FFA800"/>
<path fill-rule="evenodd" clip-rule="evenodd" d="M217.904 37.0356L227.268 30.8611L220.295 5.16415L216.298 6.83363L217.904 37.0356Z" fill="#BDBDBD"/>
<path fill-rule="evenodd" clip-rule="evenodd" d="M407.904 190.036L417.268 183.861L410.295 158.164L406.298 159.834L407.904 190.036Z" fill="#BDBDBD"/>
</svg>
