<svg width="558" height="435" viewBox="0 0 558 435" fill="none" xmlns="http://www.w3.org/2000/svg">
<path d="M80.7907 370.985C89.7883 370.618 98.8378 370.512 107.851 370.614C124.947 370.808 163.334 376.553 160.864 388.112C157.853 402.2 111.478 394.176 114.871 409.47C117.506 421.344 255.46 432.69 327.949 434.791C400.438 436.892 540.416 422.887 540.416 404.33C540.416 385.773 520.786 382.748 522.919 375.62C526.482 363.711 555.176 368.266 557.803 356.678C560.649 344.123 531.994 337.62 517.542 333.327C447.757 312.596 291.515 333.66 217.355 330.094C161.727 327.419 137.966 320.335 111.478 321.05C84.9911 321.766 58.6838 324.85 33.4031 330.094C18.1343 333.261 -4.11062 342.946 0.656535 356.678C14.7636 370.821 33.2459 370.276 56.574 371.575C64.6906 372.027 72.6949 371.316 80.7907 370.985Z" fill="#F2F2F2"/>
<g clip-path="url(#clip0)">
<path d="M310.566 367.185C285.605 367.185 265.369 365.157 265.369 362.655C265.369 360.153 285.605 358.125 310.566 358.125C335.528 358.125 355.764 360.153 355.764 362.655C355.764 365.157 335.528 367.185 310.566 367.185Z" fill="#CECECE"/>
<path opacity="0.32" d="M378.771 232.968C378.887 232.968 379.062 233.026 379.353 233.026V232.968C379.353 232.968 379.178 232.968 378.771 232.968Z" fill="#82BA83"/>
<path d="M265.893 244.409C272.009 244.409 280.862 244.409 290.239 244.409H301.713C317.439 244.409 332.058 244.409 335.203 244.351C335.203 244.351 335.786 244.351 335.844 244.351C335.902 244.351 351.395 246.151 372.421 223.21C375.624 219.726 378.886 215.718 382.322 210.956C382.381 210.898 382.381 210.84 382.439 210.84C384.012 208.575 386.633 207.239 389.428 207.239C394.903 207.239 399.038 212.176 397.99 217.519C396.476 225.475 391.234 243.015 383.953 255.56C379.76 262.761 373.12 269.266 366.888 274.435C358.093 281.637 347.143 285.644 335.786 285.76V290.406C336.252 290.464 336.776 290.581 337.242 290.697C344.93 292.555 350.638 299.466 350.638 307.713V336.346C350.638 337.565 350.23 338.727 349.473 339.598L335.028 354.001C334.795 354.408 334.504 354.756 334.155 355.105L333.048 356.266C332.64 356.673 332.175 356.963 331.709 357.196C329.787 358.706 327.049 358.59 325.243 356.847L325.185 356.789C324.952 356.615 324.719 356.441 324.486 356.208L323.205 354.931L316.623 361.493C315.342 362.829 313.187 362.829 311.906 361.493L311.789 361.377C310.508 360.1 310.45 357.951 311.789 356.673L318.371 350.11C317.614 349.355 317.148 348.426 316.915 347.497L307.596 356.789C306.14 358.241 304.101 358.59 302.295 357.834C301.189 357.602 300.14 357.079 299.267 356.208L299.092 356.034L294.2 360.913C292.86 362.248 290.763 362.248 289.482 360.913L289.365 360.796C288.084 359.519 288.084 357.37 289.365 356.092L294.258 351.214L290.938 347.903L285.288 353.537C284.007 354.873 281.852 354.873 280.57 353.537L280.512 353.421C279.173 352.143 279.173 349.994 280.512 348.716L290.414 338.843C290.472 338.785 290.53 338.727 290.647 338.669L291.637 337.682C293.967 335.358 297.752 335.358 300.14 337.682L302.994 340.527L311.44 332.106V321.071H302.412C297.578 321.071 293.442 318.284 291.52 314.218C290.763 312.65 290.297 310.85 290.297 308.991V296.098H268.747C268.223 296.098 267.699 296.098 267.174 296.04C262.049 295.575 261.699 292.904 258.671 288.257L249.934 274.435L241.722 261.426L236.888 253.817L265.893 244.409ZM326.059 339.25C326.641 339.482 327.224 339.83 327.748 340.295L335.786 332.28V321.246H326.059V339.25Z" fill="#00AF57"/>
<path d="M254.011 213.511C257.04 204.567 268.98 204.799 276.318 206.716C286.802 209.387 299.383 216.996 309.634 209.678C314.876 205.961 317.555 199.572 316.332 193.242C315.808 190.396 314.526 187.666 312.604 185.459C311.148 183.775 308.178 180.058 303.518 181.742C300.14 182.962 299.208 188.654 303.751 188.828C306.43 188.944 306.139 191.848 303.693 191.906C293.151 192.254 295.539 177.445 305.557 177.619C316.973 177.793 322.389 192.661 319.652 201.953C316.157 213.801 303.868 218.331 292.568 215.718C286.103 214.208 280.046 211.304 273.523 209.968C269.679 209.155 265.368 208.807 261.757 210.607C259.835 211.536 257.506 213.395 257.331 215.776C257.04 219.261 260.651 221.409 263.679 220.48C265.893 219.783 267.349 223.152 265.077 223.849C258.845 225.765 251.739 220.422 254.011 213.511Z" fill="#AAD682"/>
<path d="M183.536 208.923L248.653 187.841C250.691 187.202 252.904 187.492 254.652 188.712L267.349 197.249C268.747 198.179 269.737 199.514 270.261 201.082L277.192 222.397C277.716 224.081 277.658 225.882 277.017 227.508L271.601 240.691C270.843 242.55 269.271 244.002 267.349 244.583L245.333 251.726L238.052 229.424L229.316 238.601L220.928 235.929L216.502 242.782L207.765 241.04L202.756 248.474L188.137 245.57L179.051 217.635C177.886 213.976 179.925 210.085 183.536 208.923ZM251.74 223.442C255.467 224.952 259.894 223.5 262.049 220.132C264.844 215.66 262.981 209.852 258.03 207.819C254.302 206.309 249.876 207.761 247.721 211.13C244.925 215.66 246.847 221.468 251.74 223.442Z" fill="#00AF57"/>
<path d="M229.956 241.04L221.86 238.426L217.55 245.105L208.814 243.421L203.863 250.739L189.593 249.868L193.729 262.529C194.719 265.491 198.33 267.001 201.766 265.897L245.274 251.726L237.994 229.424L229.956 241.04Z" fill="#00AF57"/>
<path d="M369.683 250.275C365.309 250.275 361.762 246.738 361.762 242.376C361.762 238.014 365.309 234.477 369.683 234.477C374.058 234.477 377.604 238.014 377.604 242.376C377.604 246.738 374.058 250.275 369.683 250.275Z" fill="#AAD682"/>
<path d="M241.489 261.484L249.701 274.493C251.391 273.854 252.905 272.693 253.895 270.95C255.992 267.175 254.652 262.355 250.866 260.264C247.721 258.522 243.935 259.103 241.489 261.484Z" fill="#AAD682"/>
<path d="M290.064 302.661V309.108C290.064 310.967 290.471 312.767 291.287 314.336C294.141 313.929 296.354 311.49 296.354 308.527C296.354 305.275 293.733 302.661 290.471 302.661C290.355 302.661 290.238 302.661 290.064 302.661Z" fill="#AAD682"/>
<path d="M320.408 319.91C322.563 320.607 324.718 321.072 326.524 321.188H331.242C332.524 318.981 332.174 316.077 330.252 314.16C327.922 311.837 324.194 311.837 321.922 314.16C320.35 315.728 319.884 317.935 320.408 319.91Z" fill="#AAD682"/>
<path d="M325.942 302.604C322.693 302.604 320.059 299.977 320.059 296.737C320.059 293.497 322.693 290.871 325.942 290.871C329.191 290.871 331.825 293.497 331.825 296.737C331.825 299.977 329.191 302.604 325.942 302.604Z" fill="#AAD682"/>
<path d="M291.81 249.985C294.14 252.308 297.868 252.308 300.14 249.985C301.654 248.474 302.178 246.383 301.712 244.409H290.237C289.771 246.383 290.296 248.474 291.81 249.985Z" fill="#AAD682"/>
<path d="M328.272 258.581C325.763 258.581 323.728 256.552 323.728 254.05C323.728 251.548 325.763 249.52 328.272 249.52C330.781 249.52 332.815 251.548 332.815 254.05C332.815 256.552 330.781 258.581 328.272 258.581Z" fill="#AAD682"/>
<path d="M313.828 269.673C311.318 269.673 309.284 267.645 309.284 265.143C309.284 262.641 311.318 260.612 313.828 260.612C316.337 260.612 318.371 262.641 318.371 265.143C318.371 267.645 316.337 269.673 313.828 269.673Z" fill="#AAD682"/>
<path d="M277.542 282.798C273.135 282.798 269.563 279.236 269.563 274.841C269.563 270.447 273.135 266.885 277.542 266.885C281.949 266.885 285.521 270.447 285.521 274.841C285.521 279.236 281.949 282.798 277.542 282.798Z" fill="#AAD682"/>
<path d="M307.711 311.78C308.468 311.49 309.226 311.025 309.808 310.444C312.138 308.121 312.138 304.461 309.808 302.138C308.76 301.093 307.478 300.512 306.138 300.454C305.09 304.229 305.323 308.295 307.711 311.78Z" fill="#AAD682"/>
<path d="M372.363 223.268C375.45 225.998 380.226 225.882 383.197 222.92C386.283 219.841 386.283 214.847 383.197 211.769C382.905 211.478 382.614 211.188 382.265 211.014C378.886 215.718 375.567 219.783 372.363 223.268Z" fill="#AAD682"/>
<path d="M219.531 299.466L219.647 299.582C220.929 300.918 223.084 300.918 224.365 299.641L228.326 295.807C228.384 296.62 228.734 297.434 229.316 298.014C230.714 299.466 232.985 299.466 234.441 298.072L236.13 296.388L243.877 304.287L244.634 305.042C245.508 305.739 246.614 306.203 247.837 306.203L252.322 306.261L266.767 306.436L273.348 306.494V306.436C275.795 306.203 277.717 304.229 277.717 301.731L278.008 278.326V277.281C277.891 276.119 277.425 275.016 276.552 274.144L263.33 260.67L263.097 277.223L263.039 281.578L262.981 286.225L262.864 297.84L258.205 297.782L252.031 291.452L245.333 284.656C244.984 284.308 244.634 284.076 244.226 283.843C244.168 283.727 244.11 283.611 243.993 283.553C242.596 282.101 240.324 282.101 238.868 283.495L238.693 283.727C238.227 283.96 237.82 284.25 237.47 284.598L235.199 286.805C235.082 286.167 234.791 285.644 234.325 285.121L234.208 285.063C232.927 283.727 230.772 283.727 229.491 285.005L219.473 294.82C218.25 295.982 218.25 298.131 219.531 299.466Z" fill="#00AF57"/>
<path d="M263.039 286.226C263.679 286.226 264.378 286.109 265.019 285.819C267.291 284.774 268.281 282.102 267.291 279.836C266.534 278.152 264.903 277.165 263.213 277.165L263.155 281.521L263.039 286.226Z" fill="#AAD682"/>
</g>
<path d="M282.839 123.285C289.993 123.285 295.792 117.485 295.792 110.331C295.792 103.177 289.993 97.3773 282.839 97.3773C275.684 97.3773 269.885 103.177 269.885 110.331C269.885 117.485 275.684 123.285 282.839 123.285Z" fill="#F2F2F2"/>
<path d="M284.178 145.619C287.632 145.619 290.432 142.819 290.432 139.366C290.432 135.912 287.632 133.112 284.178 133.112C280.725 133.112 277.925 135.912 277.925 139.366C277.925 142.819 280.725 145.619 284.178 145.619Z" fill="#F2F2F2"/>
<path d="M271.383 94.8899L272.545 94.9435C279.2 95.2433 285.701 92.8911 290.623 88.403C295.545 83.9149 298.485 77.6575 298.799 71.0038C299.097 64.9855 297.197 59.0642 293.452 54.3434C295.898 50.6175 297.295 46.3014 297.496 41.8489C297.7 37.6473 296.843 33.462 295.004 29.6785C293.166 25.895 290.405 22.6349 286.976 20.1985C283.547 17.7621 279.56 16.2276 275.382 15.7365C271.204 15.2453 266.97 15.8133 263.069 17.388C260.644 12.8846 256.965 9.18117 252.477 6.72649C247.989 4.27182 242.886 3.17123 237.786 3.55808C232.685 3.94492 227.807 5.8026 223.741 8.90604C219.674 12.0095 216.596 16.2255 214.877 21.0432C210.426 17.2176 204.776 15.0709 198.908 14.9759C193.04 14.8808 187.323 16.8432 182.751 20.5227C178.178 24.2021 175.038 29.3664 173.875 35.1192C172.713 40.872 173.601 46.8503 176.386 52.0167C171.144 53.6613 166.748 57.2802 164.126 62.1079C161.505 66.9357 160.864 72.5937 162.34 77.8854C163.815 83.177 167.291 87.6873 172.032 90.4622C176.773 93.2372 182.408 94.0592 187.744 92.7544C190.026 96.6473 193.129 99.9957 196.837 102.566C200.546 105.136 204.771 106.866 209.217 107.636C213.663 108.406 218.223 108.196 222.58 107.022C226.937 105.848 230.985 103.737 234.442 100.838C237.091 103.279 240.26 105.088 243.71 106.127C247.16 107.166 250.8 107.408 254.357 106.835C257.914 106.263 261.295 104.89 264.244 102.821C267.193 100.752 269.634 98.0398 271.383 94.8899Z" fill="#F2F2F2"/>
<rect width="53.6021" height="41.0949" transform="translate(205.562 35.7347)" fill="#F2F2F2"/>
<defs>
<clipPath id="clip0">
<rect width="219.405" height="189.566" fill="white" transform="matrix(-1 0 0 1 398.165 177.619)"/>
</clipPath>
</defs>
</svg>
