<svg width="28" height="28" viewBox="0 0 28 28" fill="none" xmlns="http://www.w3.org/2000/svg">
<path fill-rule="evenodd" clip-rule="evenodd" d="M28 2.89844V24.8281C28 25.6302 27.7352 26.332 27.2055 26.9336C26.6758 27.5352 26.0091 27.8906 25.2055 28H3.17808C2.37443 28 1.67124 27.7357 1.06849 27.207C0.46575 26.6784 0.10959 26.0313 0 25.2656V3.28125C0 2.47916 0.237441 1.77735 0.712329 1.17578C1.18722 0.574216 1.82648 0.200522 2.63014 0.0546875C2.77626 0.018229 2.97717 0 3.23288 0H24.7671C25.6073 0 26.3379 0.273435 26.9589 0.820312C27.5799 1.36719 27.9269 2.05989 28 2.89844ZM19.3975 4.32029V7.54678C19.3975 7.83844 19.507 8.09364 19.7262 8.31239C19.9454 8.53113 20.2011 8.6405 20.4934 8.6405H23.7263C24.0185 8.6405 24.2651 8.53113 24.466 8.31239C24.6669 8.09364 24.7674 7.83844 24.7674 7.54678C24.8039 6.4895 24.8039 5.41402 24.7674 4.32029C24.7674 4.02863 24.6669 3.77343 24.466 3.55468C24.2651 3.33593 24.0003 3.22656 23.6715 3.22656H20.4934C20.2011 3.22656 19.9454 3.33593 19.7262 3.55468C19.507 3.77343 19.3975 4.02863 19.3975 4.32029ZM14.0272 8.64062C12.5294 8.64062 11.2509 9.16014 10.1916 10.1992C9.13221 11.2383 8.60254 12.5052 8.60254 13.9999C8.60254 15.4947 9.13221 16.7616 10.1916 17.8007C11.2509 18.8397 12.5294 19.3593 14.0272 19.3593C15.4883 19.3593 16.7486 18.8306 17.8079 17.7733C18.8673 16.716 19.397 15.4583 19.397 13.9999C19.397 12.5416 18.8673 11.2838 17.8079 10.2265C16.7486 9.16926 15.4883 8.64062 14.0272 8.64062ZM24.7122 11.9766V11.7578H22.356C22.7944 13.6901 22.703 15.4401 22.082 17.0079C21.4245 18.7214 20.3286 20.1068 18.7944 21.1642C17.4062 22.0756 15.8994 22.5496 14.2738 22.586C12.6483 22.6225 11.1232 22.2397 9.69849 21.4376C8.2373 20.599 7.12315 19.4506 6.35603 17.9922C5.36972 15.987 5.13228 13.9089 5.6437 11.7578H3.06836V23.6251C3.06836 23.9532 3.18708 24.2267 3.42452 24.4454C3.66197 24.6642 3.94507 24.7736 4.27384 24.7736H23.6711C23.9998 24.7736 24.2647 24.6642 24.4656 24.4454C24.6665 24.2267 24.767 23.9715 24.767 23.6798C24.767 22.3673 24.7578 20.4076 24.7396 17.8008C24.7213 15.194 24.7122 13.2526 24.7122 11.9766Z" fill="#00AF57"/>
</svg>
