<svg width="34" height="35" viewBox="0 0 34 35" fill="none" xmlns="http://www.w3.org/2000/svg">
<path d="M15.3501 15.6528C15.4654 15.7723 15.6216 15.8353 15.7805 15.8353C15.856 15.8353 15.9328 15.8211 16.0055 15.7912C16.2317 15.7 16.3797 15.4808 16.3797 15.2365V0.598761C16.3797 0.267908 16.1114 0 15.7805 0C11.8056 0 8.04147 1.52523 5.18221 4.29479C5.06813 4.40652 5.00282 4.5564 5.00007 4.71534C4.99771 4.87427 5.05829 5.02888 5.16923 5.14218L15.3501 15.6528ZM15.181 1.21168V13.7558L6.45527 4.74878C8.88139 2.58702 11.9401 1.34701 15.181 1.21168Z" fill="black"/>
<path d="M15.8329 17.3657C15.8491 17.1926 15.7889 17.0191 15.6669 16.8932L5.48484 6.38303C5.37429 6.26973 5.22322 6.20364 5.06429 6.20168C4.90535 6.20325 4.75193 6.2599 4.63823 6.37045C1.64718 9.26787 0 13.1531 0 17.3106C0 20.487 0.971708 23.5323 2.80851 26.1177C2.92496 26.283 3.11025 26.3715 3.2979 26.3715C3.41711 26.3715 3.53867 26.3353 3.64371 26.2613L15.5827 17.7992C15.7259 17.6981 15.8172 17.5404 15.8329 17.3657ZM3.44897 24.9297C1.97449 22.6562 1.19831 20.0361 1.19831 17.3106C1.19831 13.6807 2.56145 10.2762 5.05013 7.6557L14.3199 17.2252L3.44897 24.9297Z" fill="black"/>
<path d="M33.9997 18.8358C33.9973 18.1883 33.9509 17.5156 33.862 16.8366C33.8293 16.5875 33.79 16.3401 33.7463 16.0962C33.648 15.5588 33.5237 15.0344 33.3789 14.5395C33.3156 14.3207 33.2463 14.1032 33.1728 13.8888C33.0146 13.4226 32.8309 12.9576 32.6283 12.5103C32.5406 12.3132 32.4481 12.1197 32.3521 11.9289C32.1424 11.5115 31.9103 11.0968 31.6601 10.6936C31.5508 10.5169 31.4398 10.3438 31.3245 10.1751C31.0389 9.75451 30.7297 9.34458 30.4048 8.95551C30.2757 8.80129 30.1439 8.64826 30.0078 8.49719C29.7092 8.16634 29.3874 7.84021 29.0519 7.52824C28.9047 7.39133 28.7544 7.25561 28.6018 7.125C28.2568 6.82719 27.8945 6.5404 27.5274 6.27721C27.3602 6.15604 27.1918 6.03763 27.0223 5.92748C26.6222 5.66114 26.2162 5.41684 25.8189 5.2044C25.6328 5.10369 25.4439 5.00731 25.2535 4.91446C24.7665 4.67645 24.2606 4.46205 23.7499 4.27794C23.5387 4.20083 23.3263 4.12687 23.1111 4.06038C22.6138 3.9042 22.0988 3.77044 21.5791 3.66501C21.34 3.61623 21.0988 3.57374 20.8545 3.5344C20.2868 3.44785 19.6947 3.39081 19.0968 3.36878C18.8898 3.36091 18.6825 3.35304 18.474 3.35304C17.9826 3.35304 17.5837 3.75156 17.5837 4.24331V18.4196L6.0216 26.6138C5.82883 26.7496 5.69625 26.9588 5.65652 27.1953C5.61836 27.4286 5.67186 27.6615 5.80916 27.857L5.86699 27.9341C6.11837 28.2823 6.3973 28.6336 6.72028 29.0085C6.85207 29.1615 6.98544 29.3126 7.12195 29.4589C7.42133 29.7803 7.74825 30.1002 8.09444 30.4121C8.24472 30.5459 8.39776 30.6785 8.55315 30.8075C8.98078 31.1635 9.37891 31.4645 9.77074 31.7308C9.91433 31.8268 10.0611 31.9185 10.2074 32.0082L10.2936 32.0617C10.696 32.3123 11.1099 32.5436 11.5281 32.7549C11.7193 32.8509 11.9109 32.9437 12.104 33.0306C12.5281 33.2226 12.9809 33.3993 13.4892 33.5728C13.7036 33.6467 13.9192 33.7163 14.1359 33.7793C14.6757 33.9366 15.1828 34.0598 15.6899 34.1526C15.9362 34.1983 16.1828 34.2329 16.4299 34.2659C17.1022 34.3556 17.7757 34.4028 18.4158 34.4044C18.426 34.4044 18.4634 34.406 18.4736 34.406C18.7541 34.406 19.0322 34.3981 19.3076 34.3824C20.0421 34.3446 20.7833 34.2518 21.5107 34.105C21.8762 34.0326 22.2444 33.9445 22.637 33.834C23.7657 33.5204 24.8527 33.0826 25.8676 32.5294C26.8846 31.9763 27.8476 31.3005 28.7297 30.5223C29.2242 30.0876 29.6915 29.6194 30.1172 29.1344C30.8977 28.2504 31.5736 27.2877 32.1255 26.2716C32.6759 25.2601 33.1145 24.1743 33.43 23.0417C33.5402 22.6432 33.6295 22.2758 33.7011 21.915C33.8451 21.1904 33.9383 20.45 33.9788 19.7108C33.9926 19.435 34.0009 19.1576 34.0009 18.8791L33.9997 18.8358ZM32.7813 19.6486C32.7443 20.3292 32.6582 21.0129 32.5252 21.6809C32.4591 22.0118 32.3773 22.3537 32.275 22.7223C31.9839 23.7652 31.5795 24.7672 31.0716 25.7C30.5629 26.6359 29.939 27.5246 29.2175 28.3421C28.8237 28.7894 28.3929 29.2213 27.9354 29.6246C27.1202 30.3445 26.2319 30.9668 25.2941 31.4775C24.3589 31.9862 23.3565 32.3914 22.3144 32.6797C21.9509 32.782 21.611 32.8642 21.2754 32.9319C20.6047 33.0645 19.9209 33.151 19.2431 33.1872C18.9886 33.1998 18.7333 33.2108 18.4756 33.2077C18.4665 33.2077 18.4437 33.2061 18.4347 33.2061C17.8312 33.2045 17.21 33.162 16.588 33.0786C16.3587 33.0487 16.1309 33.0157 15.9055 32.9748C15.4417 32.8898 14.9727 32.7761 14.4715 32.6298C14.2701 32.5715 14.071 32.5054 13.8739 32.4394C13.4038 32.2788 12.986 32.1164 12.5962 31.9397C12.4152 31.8579 12.2378 31.7714 12.0643 31.6844C11.6815 31.4909 11.2979 31.2765 10.925 31.0447L10.8369 30.9897C10.7031 30.9078 10.5705 30.8256 10.4419 30.7391C10.0831 30.4948 9.71527 30.2158 9.31911 29.8881C9.1763 29.7685 9.03428 29.6454 8.89502 29.5211C8.57518 29.2343 8.27383 28.9381 7.99688 28.6403C7.86981 28.5045 7.74667 28.3645 7.62629 28.226C7.38277 27.9439 7.16719 27.676 6.9697 27.4117L18.5287 19.219C18.6872 19.1073 18.7813 18.9244 18.7813 18.7308V4.55686C18.8706 4.55843 18.9599 4.56315 19.0492 4.5663C19.6031 4.58676 20.1483 4.63869 20.6704 4.71894C20.8954 4.75356 21.1189 4.79447 21.3396 4.83854C21.8175 4.93767 22.2928 5.05924 22.7531 5.20401C22.9506 5.26538 23.1465 5.33304 23.3408 5.40386C23.8117 5.5742 24.2787 5.7709 24.7268 5.99003C24.9026 6.07658 25.0773 6.16509 25.25 6.25951C25.6159 6.45503 25.9884 6.67848 26.3602 6.92594C26.5172 7.02979 26.671 7.13719 26.8248 7.24892C27.1651 7.49322 27.4991 7.75641 27.8181 8.03179C27.959 8.15296 28.0986 8.27767 28.2348 8.40513C28.5448 8.6935 28.8418 8.99445 29.1172 9.29855C29.2419 9.439 29.3642 9.57905 29.4838 9.72225C29.7836 10.0814 30.0696 10.4611 30.3332 10.8486C30.4406 11.0059 30.5425 11.1668 30.642 11.3262C30.8725 11.6979 31.0869 12.0807 31.2801 12.4651C31.3682 12.6417 31.4532 12.8179 31.535 13.0009C31.7223 13.4167 31.8914 13.8439 32.0374 14.2739C32.1047 14.471 32.168 14.6709 32.2274 14.8743C32.3616 15.331 32.476 15.8149 32.5661 16.3094C32.6074 16.5364 32.6432 16.763 32.6735 16.9916C32.7557 17.6202 32.799 18.2426 32.8006 18.8382L32.801 18.8791C32.8018 19.138 32.7943 19.3949 32.7813 19.6486Z" fill="black"/>
</svg>
