<svg width="196" height="38" viewBox="0 0 196 38" fill="none" xmlns="http://www.w3.org/2000/svg">
<path d="M49.5156 24.2471V37.5529H51.5578V32.9909H53.994C56.9677 32.9909 59.3502 32.0025 59.3502 28.619C59.3502 25.2355 56.9677 24.2471 53.994 24.2471H49.5156ZM57.2722 28.619C57.2722 30.5579 55.8212 31.0141 54.1015 31.0141H51.5578V26.224H54.1015C55.8392 26.224 57.2722 26.6802 57.2722 28.619Z" fill="#333E2B"/>
<path d="M65.5857 37.5529V32.5727H68.1295L71.8913 37.5529H74.3455L70.3328 32.3446C71.9809 31.9264 73.3782 30.786 73.3782 28.4099C73.3782 25.2355 70.9061 24.2471 68.5594 24.2471H63.5436V37.5529H65.5857ZM65.5857 26.224H68.649C69.9925 26.224 71.3002 26.7372 71.3002 28.4479C71.3002 30.1397 69.9925 30.6529 68.649 30.6529H65.5857V26.224Z" fill="#333E2B"/>
<path d="M78.2538 24.2471V37.5529H80.2959V24.2471H78.2538Z" fill="#333E2B"/>
<path d="M84.7238 31.0141C84.7059 35.557 88.1453 37.8 91.3877 37.8C92.7133 37.8 93.9673 37.4769 95.0242 36.9256V34.7777C94.2002 35.443 93.0358 35.8041 91.746 35.8041C89.3455 35.8041 86.8018 34.2835 86.8018 31.0141C86.8197 27.4975 89.3097 25.9959 91.7102 25.9959C92.8925 25.9959 94.0568 26.338 94.9346 26.9843V24.8744C93.8598 24.3041 92.6237 24 91.3698 24C88.0737 24 84.7238 26.281 84.7238 31.0141Z" fill="#333E2B"/>
<path d="M99.3821 24.2471V37.5529H108.124V35.576H101.424V31.8314H107.479V29.8545H101.424V26.224H108.016V24.2471H99.3821Z" fill="#333E2B"/>
<path d="M121.293 24.2471V29.8926H114.682V24.2471H112.64V37.5529H114.682V31.8884H121.293V37.5529H123.335V24.2471H121.293Z" fill="#333E2B"/>
<path d="M129.275 37.5529L130.386 34.6826H136.673L137.784 37.5529H139.934L134.649 24.2471H132.41L127.107 37.5529H129.275ZM133.288 27.0983C133.359 26.8893 133.431 26.6802 133.521 26.357C133.61 26.6802 133.682 26.8893 133.753 27.0983L135.957 32.7818H131.084L133.288 27.0983Z" fill="#333E2B"/>
<path d="M142.393 31.0141C142.375 35.557 145.814 37.8 149.056 37.8C150.382 37.8 151.636 37.4769 152.693 36.9256V34.7777C151.869 35.443 150.704 35.8041 149.415 35.8041C147.014 35.8041 144.471 34.2835 144.471 31.0141C144.488 27.4975 146.978 25.9959 149.379 25.9959C150.561 25.9959 151.726 26.338 152.603 26.9843V24.8744C151.529 24.3041 150.292 24 149.039 24C145.742 24 142.393 26.281 142.393 31.0141Z" fill="#333E2B"/>
<path d="M159.093 37.5529V31.7934H161.601L165.381 37.5529H167.692L163.213 30.7289L167.369 24.2471H165.058L161.565 29.7975H159.093V24.2471H157.051V37.5529H159.093Z" fill="#333E2B"/>
<path d="M171.341 24.2471V37.5529H180.083V35.576H173.383V31.8314H179.438V29.8545H173.383V26.224H179.976V24.2471H171.341Z" fill="#333E2B"/>
<path d="M186.642 37.5529V32.5727H189.185L192.947 37.5529H195.401L191.389 32.3446C193.037 31.9264 194.434 30.786 194.434 28.4099C194.434 25.2355 191.962 24.2471 189.615 24.2471H184.599V37.5529H186.642ZM186.642 26.224H189.705C191.048 26.224 192.356 26.7372 192.356 28.4479C192.356 30.1397 191.048 30.6529 189.705 30.6529H186.642V26.224Z" fill="#333E2B"/>
<g clip-path="url(#clip0)">
<path d="M16.9749 38C21.8119 38 25.7331 37.5935 25.7331 37.0919C25.7331 36.5904 21.8119 36.1838 16.9749 36.1838C12.138 36.1838 8.2168 36.5904 8.2168 37.0919C8.2168 37.5935 12.138 38 16.9749 38Z" fill="#CECECE"/>
<path opacity="0.32" d="M3.75728 11.0951C3.73473 11.0951 3.70091 11.1063 3.64453 11.1063V11.0951C3.64453 11.0951 3.67836 11.0951 3.75728 11.0951Z" fill="#82BA83"/>
<path d="M25.6309 13.3885C24.4458 13.3885 22.7303 13.3885 20.9132 13.3885H18.6898C15.6425 13.3885 12.8097 13.3885 12.2002 13.3768C12.2002 13.3768 12.0873 13.3768 12.076 13.3768C12.0648 13.3768 9.06261 13.7377 4.98826 9.13906C4.36752 8.44053 3.73549 7.63722 3.0696 6.68257C3.05831 6.67093 3.05831 6.65928 3.04702 6.65928C2.74229 6.20524 2.23441 5.93747 1.69267 5.93747C0.631759 5.93747 -0.169567 6.92705 0.0335857 7.99813C0.327029 9.59311 1.34279 13.109 2.75358 15.6237C3.56619 17.0674 4.85283 18.3713 6.06046 19.4074C7.76469 20.8511 9.88651 21.6544 12.0873 21.6777V22.609C11.997 22.6207 11.8955 22.644 11.8052 22.6672C10.3154 23.0398 9.20933 24.4252 9.20933 26.0784V31.818C9.20933 32.0625 9.28834 32.2953 9.43506 32.4699L12.2341 35.3572C12.2792 35.4387 12.3356 35.5086 12.4034 35.5784L12.6178 35.8112C12.6968 35.8927 12.7871 35.951 12.8774 35.9975C13.2498 36.3002 13.7803 36.2769 14.1302 35.9277L14.1414 35.916C14.1866 35.8811 14.2317 35.8462 14.2769 35.7996L14.5252 35.5435L15.8005 36.859C16.0488 37.1268 16.4664 37.1268 16.7147 36.859L16.7373 36.8358C16.9856 36.5796 16.9969 36.1489 16.7373 35.8927L15.4619 34.5772C15.6087 34.4258 15.6989 34.2396 15.7441 34.0533L17.5499 35.916C17.8321 36.2071 18.2271 36.2769 18.577 36.1256C18.7914 36.079 18.9945 35.9742 19.1638 35.7996L19.1977 35.7647L20.1457 36.7426C20.4053 37.0104 20.8116 37.0104 21.0599 36.7426L21.0825 36.7193C21.3308 36.4632 21.3308 36.0324 21.0825 35.7763L20.1345 34.7984L20.7778 34.1348L21.8725 35.2641C22.1208 35.5318 22.5384 35.5318 22.7867 35.2641L22.798 35.2408C23.0576 34.9847 23.0576 34.5539 22.798 34.2978L20.8794 32.3186C20.8681 32.307 20.8568 32.2953 20.8342 32.2837L20.6423 32.0858C20.1909 31.6201 19.4573 31.6201 18.9945 32.0858L18.4415 32.6562L16.805 30.9681V28.7561H18.5544C19.4911 28.7561 20.2925 28.1973 20.6649 27.3823C20.8116 27.068 20.9019 26.7071 20.9019 26.3345V23.75H25.0778C25.1794 23.75 25.281 23.75 25.3826 23.7383C26.3758 23.6452 26.4435 23.1097 27.0304 22.1783L28.7233 19.4074L30.3147 16.7996L31.2514 15.2745L25.6309 13.3885ZM13.9721 32.4001C13.8593 32.4467 13.7464 32.5165 13.6448 32.6097L12.0873 31.003V28.791H13.9721V32.4001Z" fill="#00AF57"/>
<path d="M27.9334 7.19482C27.3465 5.40193 25.0328 5.4485 23.6107 5.83269C21.5792 6.36823 19.1414 7.89335 17.155 6.42644C16.1392 5.68134 15.62 4.4007 15.857 3.13171C15.9586 2.56124 16.2069 2.01406 16.5794 1.57166C16.8615 1.23404 17.4371 0.488941 18.34 0.826563C18.9946 1.07105 19.1752 2.21198 18.2949 2.24691C17.7757 2.27019 17.8321 2.8523 18.3062 2.86394C20.349 2.93379 19.8863 -0.0349564 17.945 -2.99041e-05C15.7329 0.0348966 14.6833 3.01529 15.2137 4.87803C15.8909 7.25303 18.2723 8.16112 20.4619 7.63722C21.7146 7.33453 22.8884 6.75242 24.1525 6.48465C24.8974 6.32166 25.7325 6.25181 26.4323 6.61271C26.8047 6.79899 27.2562 7.17154 27.2901 7.64887C27.3465 8.34739 26.6467 8.77816 26.0599 8.59188C25.631 8.45218 25.3488 9.12742 25.789 9.26713C26.9966 9.65132 28.3735 8.58024 27.9334 7.19482Z" fill="#AAD682"/>
<path d="M41.59 6.27499L28.9719 2.04888C28.5769 1.92082 28.148 1.97903 27.8094 2.22351L25.349 3.93491C25.0781 4.12119 24.8863 4.38896 24.7847 4.70329L23.4416 8.97597C23.34 9.31359 23.3513 9.6745 23.4755 10.0005L24.5251 12.6432C24.6718 13.0158 24.9765 13.3068 25.349 13.4233L29.6152 14.8553L31.026 10.3847L32.7189 12.2241L34.3442 11.6886L35.2019 13.0624L36.8949 12.7131L37.8655 14.2033L40.6983 13.6212L42.459 8.02131C42.6847 7.28785 42.2897 6.50783 41.59 6.27499ZM28.3737 9.18552C27.6514 9.48822 26.7936 9.19717 26.376 8.52192C25.8343 7.62548 26.1955 6.46126 27.1548 6.05378C27.8771 5.75109 28.7349 6.04214 29.1525 6.71739C29.6942 7.62548 29.3218 8.78969 28.3737 9.18552Z" fill="#00AF57"/>
<path d="M32.5952 12.7132L34.164 12.1893L34.9992 13.5281L36.6922 13.1905L37.6515 14.6574L40.4166 14.4828L39.6153 17.0208C39.4235 17.6145 38.7237 17.9172 38.0578 17.696L29.627 14.8553L31.0377 10.3847L32.5952 12.7132Z" fill="#00AF57"/>
<path d="M5.51931 14.5643C6.36703 14.5643 7.05424 13.8554 7.05424 12.981C7.05424 12.1065 6.36703 11.3976 5.51931 11.3976C4.67159 11.3976 3.98438 12.1065 3.98438 12.981C3.98438 13.8554 4.67159 14.5643 5.51931 14.5643Z" fill="#AAD682"/>
<path d="M30.3594 16.8114L28.7681 19.4192C28.4408 19.2911 28.1473 19.0583 27.9555 18.709C27.5491 17.9523 27.8087 16.986 28.5423 16.5669C29.1518 16.2176 29.8854 16.334 30.3594 16.8114Z" fill="#AAD682"/>
<path d="M20.9474 25.0655V26.3578C20.9474 26.7304 20.8684 27.0913 20.7104 27.4056C20.1574 27.3241 19.7285 26.8351 19.7285 26.2414C19.7285 25.5894 20.2364 25.0655 20.8684 25.0655C20.891 25.0655 20.9136 25.0655 20.9474 25.0655Z" fill="#AAD682"/>
<path d="M15.0666 28.5233C14.649 28.663 14.2314 28.7562 13.8815 28.7795H12.9673C12.719 28.3371 12.7867 27.7549 13.1592 27.3708C13.6106 26.9051 14.333 26.9051 14.7731 27.3708C15.0779 27.6851 15.1681 28.1275 15.0666 28.5233Z" fill="#AAD682"/>
<path d="M13.9954 25.054C14.6249 25.054 15.1353 24.5275 15.1353 23.8781C15.1353 23.2287 14.6249 22.7023 13.9954 22.7023C13.3658 22.7023 12.8555 23.2287 12.8555 23.8781C12.8555 24.5275 13.3658 25.054 13.9954 25.054Z" fill="#AAD682"/>
<path d="M20.6087 14.5062C20.1573 14.9719 19.435 14.9719 18.9948 14.5062C18.7014 14.2035 18.5998 13.7844 18.6901 13.3885H20.9135C21.0038 13.7844 20.9022 14.2035 20.6087 14.5062Z" fill="#AAD682"/>
<path d="M13.5444 16.2292C14.0306 16.2292 14.4247 15.8226 14.4247 15.3211C14.4247 14.8196 14.0306 14.413 13.5444 14.413C13.0582 14.413 12.6641 14.8196 12.6641 15.3211C12.6641 15.8226 13.0582 16.2292 13.5444 16.2292Z" fill="#AAD682"/>
<path d="M16.3432 18.4528C16.8294 18.4528 17.2235 18.0462 17.2235 17.5447C17.2235 17.0432 16.8294 16.6366 16.3432 16.6366C15.857 16.6366 15.4629 17.0432 15.4629 17.5447C15.4629 18.0462 15.857 18.4528 16.3432 18.4528Z" fill="#AAD682"/>
<path d="M23.3743 21.0839C24.2283 21.0839 24.9206 20.3698 24.9206 19.489C24.9206 18.6081 24.2283 17.894 23.3743 17.894C22.5204 17.894 21.8281 18.6081 21.8281 19.489C21.8281 20.3698 22.5204 21.0839 23.3743 21.0839Z" fill="#AAD682"/>
<path d="M17.5281 26.8934C17.3814 26.8352 17.2347 26.7421 17.1218 26.6257C16.6703 26.16 16.6703 25.4265 17.1218 24.9608C17.3249 24.7513 17.5732 24.6348 17.8328 24.6232C18.036 25.3799 17.9908 26.1949 17.5281 26.8934Z" fill="#AAD682"/>
<path d="M4.99905 9.15074C4.40088 9.69792 3.4754 9.67464 2.8998 9.08089C2.30163 8.46385 2.30163 7.46263 2.8998 6.84559C2.95623 6.78738 3.01266 6.72917 3.08038 6.69424C3.73499 7.63726 4.3783 8.45221 4.99905 9.15074Z" fill="#AAD682"/>
<path d="M34.6146 24.4253L34.5921 24.4486C34.3438 24.7164 33.9262 24.7164 33.6779 24.4602L32.9104 23.6919C32.8991 23.8548 32.8314 24.0178 32.7185 24.1343C32.4477 24.4253 32.0075 24.4253 31.7253 24.1459L31.398 23.8083L29.897 25.3916L29.7502 25.543C29.5809 25.6827 29.3665 25.7758 29.1295 25.7758L28.2605 25.7874L25.4615 25.8224L24.1861 25.834V25.8224C23.7121 25.7758 23.3396 25.38 23.3396 24.8794L23.2832 20.1876V19.978C23.3058 19.7452 23.3961 19.524 23.5654 19.3493L26.1273 16.6483L26.1725 19.9664L26.1838 20.8395L26.1951 21.7709L26.2176 24.0993L27.1205 24.0877L28.3169 22.8187L29.6148 21.4566C29.6825 21.3867 29.7502 21.3401 29.8292 21.2936C29.8405 21.2703 29.8518 21.247 29.8744 21.2354C30.1453 20.9443 30.5854 20.9443 30.8676 21.2237L30.9014 21.2703C30.9917 21.3169 31.0707 21.3751 31.1385 21.4449L31.5786 21.8873C31.6012 21.7593 31.6576 21.6545 31.7479 21.5497L31.7705 21.5381C32.0188 21.2703 32.4364 21.2703 32.6847 21.5264L34.6259 23.4939C34.8629 23.7268 34.8629 24.1575 34.6146 24.4253Z" fill="#00AF57"/>
<path d="M26.1833 21.771C26.0591 21.771 25.9237 21.7477 25.7995 21.6895C25.3594 21.4799 25.1675 20.9444 25.3594 20.4903C25.5061 20.1527 25.8221 19.9548 26.1494 19.9548L26.1607 20.8279L26.1833 21.771Z" fill="#AAD682"/>
</g>
<defs>
<clipPath id="clip0">
<rect width="42.5154" height="38" fill="white"/>
</clipPath>
</defs>
</svg>
