<svg width="215" height="163" viewBox="0 0 215 163" fill="none" xmlns="http://www.w3.org/2000/svg"><path d="M179.004 126.102a3.695 3.695 0 00-2.561-2.022l-10.249-2.194a3.693 3.693 0 00-4.064 1.937l-4.749 9.344a3.692 3.692 0 00-.042 3.262l10.736 22.523a3.692 3.692 0 004.922 1.744l14.999-7.149a3.694 3.694 0 001.744-4.922l-10.736-22.523z" fill="#97C318"/><circle r="2.769" transform="scale(-1 1) rotate(25.486 -374.365 -306.193)" fill="#fff"/><path d="M-30 57.682C-4.5 23.182 86-1.5 139.358.816c31.738 1.377 85.254 15.06 72.965 58.071-3.234 11.322-22.401 7.632-26.327-1.203-6.179-13.903 15.646-15.14 15.646 2.708C201.642 85.128 146.5 81 146.5 114c0 8.326 9 22 23.5 16" stroke="#333E2B" stroke-width=".5" stroke-linecap="round" stroke-linejoin="round"/></svg>