<svg width="47" height="285" viewBox="0 0 47 285" fill="none" xmlns="http://www.w3.org/2000/svg"><path d="M35.853 256.415a3.693 3.693 0 00-1.007-3.103l-7.307-7.514a3.692 3.692 0 00-4.456-.645l-9.137 5.135a3.694 3.694 0 00-1.845 2.691l-3.572 24.694a3.693 3.693 0 003.125 4.183l16.444 2.378a3.692 3.692 0 004.183-3.125l3.572-24.694z" fill="#E2EEF4"/><circle r="2.769" transform="scale(-1 1) rotate(-8.231 1758.109 293.946)" fill="#fff"/><path d="M25.5 245c4.5-51-20.479-79.351-24-104-3-21 5-48.5 28.5-48.5 8.5 0 9.925 10 0 10-9 0-8.5-29 4.5-46.5C50.64 34.274 23.5 8.5 47 .5" stroke="#333E2B" stroke-width=".5" stroke-linecap="round" stroke-linejoin="round"/></svg>