<svg width="163" height="890" viewBox="0 0 163 890" fill="none" xmlns="http://www.w3.org/2000/svg"><path fill="#333E2B" d="M22 0v497h-2V0zm63 0v344h-2V0z"/><path d="M0 506.859a6.79 6.79 0 012.65-5.383l15.282-11.755a6.791 6.791 0 018.282 0l15.281 11.755a6.79 6.79 0 012.65 5.383v45.895a6.792 6.792 0 01-6.79 6.792H6.791A6.792 6.792 0 010 552.754v-45.895z" fill="#97C318"/><circle cx="22.073" cy="506.911" r="5.094" fill="#fff"/><path d="M62.823 362.536a6.79 6.79 0 012.651-5.383l15.281-11.755a6.791 6.791 0 018.282 0l15.281 11.755a6.788 6.788 0 012.651 5.383v45.895a6.792 6.792 0 01-6.792 6.792H69.615a6.792 6.792 0 01-6.792-6.792v-45.895z" fill="#FFA800"/><circle cx="84.897" cy="362.588" r="5.094" fill="#fff"/><path fill="#333E2B" d="M143 0v822h-2V0z"/><path d="M118.854 837.036c0-2.108.98-4.097 2.651-5.383l15.281-11.755a6.792 6.792 0 018.282 0l15.282 11.755a6.793 6.793 0 012.65 5.383v45.896a6.79 6.79 0 01-6.791 6.791h-30.563a6.791 6.791 0 01-6.792-6.791v-45.896z" fill="#AAD682"/><circle cx="140.928" cy="837.088" r="5.094" fill="#fff"/></svg>