<svg width="192" height="251" viewBox="0 0 192 251" fill="none" xmlns="http://www.w3.org/2000/svg"><path d="M153.004 147.437a3.695 3.695 0 00-2.561-2.022l-10.249-2.194a3.692 3.692 0 00-4.064 1.937l-4.749 9.344a3.692 3.692 0 00-.042 3.262l10.736 22.523a3.693 3.693 0 004.922 1.744l14.999-7.149a3.694 3.694 0 001.744-4.922l-10.736-22.523z" fill="#FFA800"/><circle r="2.769" transform="scale(-1 1) rotate(25.486 -408.535 -238.042)" fill="#fff"/><path d="M80.038 9.5c31.462 62.5-34.038 98 0 201M41 193.5C81.04 54.5 36.46 13 36.461 10" stroke="#333E2B" stroke-width=".5" stroke-linecap="round" stroke-linejoin="round"/><path d="M94.827 216.712a3.693 3.693 0 00-2.175-2.432l-9.72-3.922a3.692 3.692 0 00-4.336 1.21l-6.285 8.388a3.692 3.692 0 00-.601 3.206l6.706 24.033a3.692 3.692 0 004.549 2.564l16.004-4.465a3.693 3.693 0 002.564-4.549l-6.706-24.033z" fill="#AAD682"/><circle r="2.769" transform="scale(-1 1) rotate(15.59 -845.034 -194.172)" fill="#fff"/><path d="M56.595 176.951a3.692 3.692 0 00-.634-3.2l-6.37-8.323a3.691 3.691 0 00-4.35-1.165l-9.678 4.022a3.693 3.693 0 00-2.15 2.454l-6.458 24.101a3.692 3.692 0 002.611 4.522l16.05 4.301a3.692 3.692 0 004.522-2.611l6.457-24.101z" fill="#97C318"/><circle r="2.769" transform="scale(-1 1) rotate(-15 637.847 257.826)" fill="#fff"/><path d="M-56.5.5c15 81.226 116.5 19.336 169.858 21.651C145.096 23.528 201 32 190 72.5c-5.007 18.436-28.573 18.061-32.5 9.227-6.179-13.904 17-20.576 17-2.727 0 24.737-54 23.336-54 56.336 0 8.326 9 22 23.5 16" stroke="#333E2B" stroke-width=".5" stroke-linecap="round" stroke-linejoin="round"/></svg>