<svg width="163" height="890" viewBox="0 0 163 890" fill="none" xmlns="http://www.w3.org/2000/svg">
<rect x="22" width="497" height="1.99999" transform="rotate(90 22 0)" fill="#333E2B"/>
<rect x="85" width="344" height="1.99999" transform="rotate(90 85 0)" fill="#333E2B"/>
<path d="M0 506.859C0 504.75 0.979386 502.761 2.65071 501.476L17.932 489.721C20.3732 487.843 23.7726 487.843 26.2139 489.721L41.4951 501.476C43.1664 502.761 44.1458 504.75 44.1458 506.859V552.754C44.1458 556.505 41.1051 559.546 37.3542 559.546H6.79167C3.04073 559.546 0 556.505 0 552.754V506.859Z" fill="#97C318"/>
<circle cx="22.0732" cy="506.911" r="5.09375" fill="white"/>
<path d="M62.8232 362.536C62.8232 360.427 63.8026 358.438 65.474 357.153L80.7552 345.398C83.1965 343.52 86.5958 343.52 89.0371 345.398L104.318 357.153C105.99 358.438 106.969 360.427 106.969 362.536V408.431C106.969 412.182 103.928 415.223 100.177 415.223H69.6149C65.864 415.223 62.8232 412.182 62.8232 408.431V362.536Z" fill="#FFA800"/>
<circle cx="84.8965" cy="362.588" r="5.09375" fill="white"/>
<rect x="143" width="822" height="1.99997" transform="rotate(90 143 0)" fill="#333E2B"/>
<path d="M118.854 837.036C118.854 834.928 119.834 832.939 121.505 831.653L136.786 819.898C139.228 818.02 142.627 818.02 145.068 819.898L160.35 831.653C162.021 832.939 163 834.928 163 837.036V882.932C163 886.683 159.96 889.723 156.209 889.723H125.646C121.895 889.723 118.854 886.683 118.854 882.932V837.036Z" fill="#AAD682"/>
<circle cx="140.928" cy="837.088" r="5.09375" fill="white"/>
</svg>
