<svg width="47" height="285" viewBox="0 0 47 285" fill="none" xmlns="http://www.w3.org/2000/svg">
<path d="M35.8534 256.415C36.0175 255.28 35.6453 254.134 34.8461 253.312L27.5389 245.798C26.3715 244.597 24.5425 244.333 23.0828 245.153L13.9458 250.288C12.9465 250.85 12.2647 251.844 12.1006 252.979L8.52853 277.673C8.23659 279.691 9.636 281.564 11.6542 281.856L28.0984 284.234C30.1166 284.526 31.9894 283.127 32.2813 281.109L35.8534 256.415Z" fill="#E2EEF4"/>
<circle r="2.76923" transform="matrix(-0.989699 -0.143163 -0.143163 0.989699 23.9722 254.724)" fill="white"/>
<path d="M25.5 245C30 194 5.02133 165.649 1.5 141C-1.5 120 6.5 92.5 30 92.5C38.5 92.5 39.9247 102.5 30 102.5C21 102.5 21.4998 73.5 34.5 56C50.6395 34.2741 23.5 8.5 47 0.5" stroke="#333E2B" stroke-width="0.5" stroke-linecap="round" stroke-linejoin="round"/>
</svg>
