<svg width="215" height="163" viewBox="0 0 215 163" fill="none" xmlns="http://www.w3.org/2000/svg">
<path d="M179.004 126.102C178.51 125.067 177.564 124.32 176.443 124.08L166.194 121.886C164.557 121.536 162.889 122.331 162.13 123.823L157.381 133.167C156.861 134.189 156.846 135.394 157.339 136.429L168.075 158.952C168.953 160.793 171.156 161.574 172.997 160.696L187.996 153.547C189.836 152.669 190.617 150.466 189.74 148.625L179.004 126.102Z" fill="#97C318"/>
<circle r="2.76923" transform="matrix(-0.902689 0.430294 0.430294 0.902689 168.183 131.291)" fill="white"/>
<path d="M-30 57.6825C-4.5 23.1825 86 -1.49958 139.358 0.815289C171.096 2.19216 224.612 15.8749 212.323 58.8864C209.089 70.2084 189.922 66.5176 185.996 57.6828C179.817 43.7798 201.642 42.5421 201.642 60.3908C201.642 85.1279 146.5 81.0003 146.5 114C146.5 122.326 155.5 136 170 130" stroke="#333E2B" stroke-width="0.5" stroke-linecap="round" stroke-linejoin="round"/>
</svg>
