<svg width="192" height="251" viewBox="0 0 192 251" fill="none" xmlns="http://www.w3.org/2000/svg">
<path d="M153.004 147.437C152.51 146.402 151.564 145.655 150.443 145.415L140.194 143.221C138.557 142.87 136.889 143.666 136.13 145.158L131.381 154.502C130.861 155.524 130.846 156.729 131.339 157.764L142.075 180.287C142.953 182.128 145.156 182.908 146.997 182.031L161.996 174.882C163.836 174.004 164.617 171.801 163.74 169.96L153.004 147.437Z" fill="#FFA800"/>
<circle r="2.76923" transform="matrix(-0.902689 0.430294 0.430294 0.902689 142.183 152.626)" fill="white"/>
<path d="M80.0376 9.5C111.5 72 46 107.5 80.0378 210.5" stroke="#333E2B" stroke-width="0.5" stroke-linecap="round" stroke-linejoin="round"/>
<path d="M41 193.5C81.0391 54.5 36.4609 13 36.461 10" stroke="#333E2B" stroke-width="0.5" stroke-linecap="round" stroke-linejoin="round"/>
<path d="M94.827 216.712C94.5189 215.608 93.7155 214.709 92.6524 214.28L82.9329 210.358C81.3801 209.731 79.6001 210.228 78.5961 211.568L72.3115 219.956C71.6242 220.873 71.4019 222.058 71.71 223.162L78.4158 247.195C78.9638 249.159 81.0004 250.307 82.9646 249.759L98.9687 245.294C100.933 244.746 102.081 242.709 101.533 240.745L94.827 216.712Z" fill="#AAD682"/>
<circle r="2.76923" transform="matrix(-0.963208 0.268756 0.268756 0.963208 83.2751 219.964)" fill="white"/>
<path d="M56.5954 176.951C56.8921 175.844 56.6577 174.661 55.9609 173.751L49.5903 165.428C48.5726 164.098 46.7875 163.62 45.2413 164.263L35.5627 168.285C34.5041 168.725 33.7099 169.632 33.4132 170.739L26.9554 194.84C26.4276 196.81 27.5965 198.835 29.5663 199.362L45.6155 203.663C47.5852 204.191 49.6098 203.022 50.1376 201.052L56.5954 176.951Z" fill="#97C318"/>
<circle r="2.76923" transform="matrix(-0.965926 -0.258819 -0.258819 0.965926 44.9961 173.872)" fill="white"/>
<path d="M-56.5 0.500244C-41.5 81.7263 60 19.8362 113.358 22.151C145.096 23.5279 201 32 190 72.5C184.993 90.936 161.427 90.5613 157.5 81.7266C151.321 67.8235 174.5 61.1513 174.5 79C174.5 103.737 120.5 102.336 120.5 135.336C120.5 143.662 129.5 157.336 144 151.336" stroke="#333E2B" stroke-width="0.5" stroke-linecap="round" stroke-linejoin="round"/>
</svg>
